<?xml version="1.0" encoding="utf-8" standalone="no"?>
<!DOCTYPE svg PUBLIC "-//W3C//DTD SVG 1.1//EN"
  "http://www.w3.org/Graphics/SVG/1.1/DTD/svg11.dtd">
<svg xmlns:xlink="http://www.w3.org/1999/xlink" width="817.173299pt" height="347.535796pt" viewBox="0 0 817.173299 347.535796" xmlns="http://www.w3.org/2000/svg" version="1.1">
 <metadata>
  <rdf:RDF xmlns:dc="http://purl.org/dc/elements/1.1/" xmlns:cc="http://creativecommons.org/ns#" xmlns:rdf="http://www.w3.org/1999/02/22-rdf-syntax-ns#">
   <cc:Work>
    <dc:type rdf:resource="http://purl.org/dc/dcmitype/StillImage"/>
    <dc:date>2026-04-17T16:42:03.123814</dc:date>
    <dc:format>image/svg+xml</dc:format>
    <dc:creator>
     <cc:Agent>
      <dc:title>Matplotlib v3.10.8, https://matplotlib.org/</dc:title>
     </cc:Agent>
    </dc:creator>
   </cc:Work>
  </rdf:RDF>
 </metadata>
 <defs>
  <style type="text/css">*{stroke-linejoin: round; stroke-linecap: butt}</style>
 </defs>
 <g id="figure_1">
  <g id="patch_1">
   <path d="M 0 347.535796 
L 817.173299 347.535796 
L 817.173299 0 
L 0 0 
z
" style="fill: #f2ede4"/>
  </g>
  <g id="axes_1">
   <g id="patch_2">
    <path d="M 62.212969 291.656186 
L 765.292969 291.656186 
L 765.292969 53.264186 
L 62.212969 53.264186 
z
" style="fill: #f2ede4"/>
   </g>
   <g id="line2d_1">
    <path d="M 638.278562 291.656186 
L 638.278562 53.264186 
" clip-path="url(#pb3b9016b6d)" style="fill: none; stroke-dasharray: 1.65,2.86; stroke-dashoffset: 0; stroke: #b54b4b; stroke-opacity: 0.75; stroke-width: 1.1"/>
   </g>
   <g id="LineCollection_1">
    <path d="M 80.087884 291.656186 
L 80.087884 86.186121 
" clip-path="url(#pb3b9016b6d)" style="fill: none; stroke: #c8b59f; stroke-opacity: 0.8"/>
   </g>
   <g id="LineCollection_2">
    <path d="M 308.290969 291.656186 
L 308.290969 123.947414 
" clip-path="url(#pb3b9016b6d)" style="fill: none; stroke: #c8b59f; stroke-opacity: 0.8"/>
   </g>
   <g id="LineCollection_3">
    <path d="M 373.236494 291.656186 
L 373.236494 163.758878 
" clip-path="url(#pb3b9016b6d)" style="fill: none; stroke: #c8b59f; stroke-opacity: 0.8"/>
   </g>
   <g id="LineCollection_4">
    <path d="M 422.690426 291.656186 
L 422.690426 87.354242 
" clip-path="url(#pb3b9016b6d)" style="fill: none; stroke: #c8b59f; stroke-opacity: 0.8"/>
   </g>
   <g id="LineCollection_5">
    <path d="M 516.831647 291.656186 
L 516.831647 118.941182 
" clip-path="url(#pb3b9016b6d)" style="fill: none; stroke: #c8b59f; stroke-opacity: 0.8"/>
   </g>
   <g id="LineCollection_6">
    <path d="M 611.568698 291.656186 
L 611.568698 163.878074 
" clip-path="url(#pb3b9016b6d)" style="fill: none; stroke: #c8b59f; stroke-opacity: 0.8"/>
   </g>
   <g id="LineCollection_7">
    <path d="M 646.126867 291.656186 
L 646.126867 147.667418 
" clip-path="url(#pb3b9016b6d)" style="fill: none; stroke: #c8b59f; stroke-opacity: 0.8"/>
   </g>
   <g id="LineCollection_8">
    <path d="M 671.151748 291.656186 
L 671.151748 200.590442 
" clip-path="url(#pb3b9016b6d)" style="fill: none; stroke: #c8b59f; stroke-opacity: 0.8"/>
   </g>
   <g id="LineCollection_9">
    <path d="M 738.480596 291.656186 
L 738.480596 262.33397 
" clip-path="url(#pb3b9016b6d)" style="fill: none; stroke: #c8b59f; stroke-opacity: 0.8"/>
   </g>
   <g id="LineCollection_10">
    <path d="M 746.226392 291.656186 
L 746.226392 290.702618 
" clip-path="url(#pb3b9016b6d)" style="fill: none; stroke: #c8b59f; stroke-opacity: 0.8"/>
   </g>
   <g id="matplotlib.axis_1">
    <g id="xtick_1">
     <g id="line2d_2"/>
     <g id="text_1">
      <!-- 2015 -->
      <g style="fill: #6f655d" transform="translate(68.635384 306.49478) scale(0.09 -0.09)">
       <defs>
        <path id="DejaVuSans-32" d="M 1228 531 
L 3431 531 
L 3431 0 
L 469 0 
L 469 531 
Q 828 903 1448 1529 
Q 2069 2156 2228 2338 
Q 2531 2678 2651 2914 
Q 2772 3150 2772 3378 
Q 2772 3750 2511 3984 
Q 2250 4219 1831 4219 
Q 1534 4219 1204 4116 
Q 875 4013 500 3803 
L 500 4441 
Q 881 4594 1212 4672 
Q 1544 4750 1819 4750 
Q 2544 4750 2975 4387 
Q 3406 4025 3406 3419 
Q 3406 3131 3298 2873 
Q 3191 2616 2906 2266 
Q 2828 2175 2409 1742 
Q 1991 1309 1228 531 
z
" transform="scale(0.015625)"/>
        <path id="DejaVuSans-30" d="M 2034 4250 
Q 1547 4250 1301 3770 
Q 1056 3291 1056 2328 
Q 1056 1369 1301 889 
Q 1547 409 2034 409 
Q 2525 409 2770 889 
Q 3016 1369 3016 2328 
Q 3016 3291 2770 3770 
Q 2525 4250 2034 4250 
z
M 2034 4750 
Q 2819 4750 3233 4129 
Q 3647 3509 3647 2328 
Q 3647 1150 3233 529 
Q 2819 -91 2034 -91 
Q 1250 -91 836 529 
Q 422 1150 422 2328 
Q 422 3509 836 4129 
Q 1250 4750 2034 4750 
z
" transform="scale(0.015625)"/>
        <path id="DejaVuSans-31" d="M 794 531 
L 1825 531 
L 1825 4091 
L 703 3866 
L 703 4441 
L 1819 4666 
L 2450 4666 
L 2450 531 
L 3481 531 
L 3481 0 
L 794 0 
L 794 531 
z
" transform="scale(0.015625)"/>
        <path id="DejaVuSans-35" d="M 691 4666 
L 3169 4666 
L 3169 4134 
L 1269 4134 
L 1269 2991 
Q 1406 3038 1543 3061 
Q 1681 3084 1819 3084 
Q 2600 3084 3056 2656 
Q 3513 2228 3513 1497 
Q 3513 744 3044 326 
Q 2575 -91 1722 -91 
Q 1428 -91 1123 -41 
Q 819 9 494 109 
L 494 744 
Q 775 591 1075 516 
Q 1375 441 1709 441 
Q 2250 441 2565 725 
Q 2881 1009 2881 1497 
Q 2881 1984 2565 2268 
Q 2250 2553 1709 2553 
Q 1456 2553 1204 2497 
Q 953 2441 691 2322 
L 691 4666 
z
" transform="scale(0.015625)"/>
       </defs>
       <use xlink:href="#DejaVuSans-32"/>
       <use xlink:href="#DejaVuSans-30" transform="translate(63.623047 0)"/>
       <use xlink:href="#DejaVuSans-31" transform="translate(127.246094 0)"/>
       <use xlink:href="#DejaVuSans-35" transform="translate(190.869141 0)"/>
      </g>
     </g>
    </g>
    <g id="xtick_2">
     <g id="line2d_3"/>
     <g id="text_2">
      <!-- 2018 -->
      <g style="fill: #6f655d" transform="translate(247.384537 306.49478) scale(0.09 -0.09)">
       <defs>
        <path id="DejaVuSans-38" d="M 2034 2216 
Q 1584 2216 1326 1975 
Q 1069 1734 1069 1313 
Q 1069 891 1326 650 
Q 1584 409 2034 409 
Q 2484 409 2743 651 
Q 3003 894 3003 1313 
Q 3003 1734 2745 1975 
Q 2488 2216 2034 2216 
z
M 1403 2484 
Q 997 2584 770 2862 
Q 544 3141 544 3541 
Q 544 4100 942 4425 
Q 1341 4750 2034 4750 
Q 2731 4750 3128 4425 
Q 3525 4100 3525 3541 
Q 3525 3141 3298 2862 
Q 3072 2584 2669 2484 
Q 3125 2378 3379 2068 
Q 3634 1759 3634 1313 
Q 3634 634 3220 271 
Q 2806 -91 2034 -91 
Q 1263 -91 848 271 
Q 434 634 434 1313 
Q 434 1759 690 2068 
Q 947 2378 1403 2484 
z
M 1172 3481 
Q 1172 3119 1398 2916 
Q 1625 2713 2034 2713 
Q 2441 2713 2670 2916 
Q 2900 3119 2900 3481 
Q 2900 3844 2670 4047 
Q 2441 4250 2034 4250 
Q 1625 4250 1398 4047 
Q 1172 3844 1172 3481 
z
" transform="scale(0.015625)"/>
       </defs>
       <use xlink:href="#DejaVuSans-32"/>
       <use xlink:href="#DejaVuSans-30" transform="translate(63.623047 0)"/>
       <use xlink:href="#DejaVuSans-31" transform="translate(127.246094 0)"/>
       <use xlink:href="#DejaVuSans-38" transform="translate(190.869141 0)"/>
      </g>
     </g>
    </g>
    <g id="xtick_3">
     <g id="line2d_4"/>
     <g id="text_3">
      <!-- 2020 -->
      <g style="fill: #6f655d" transform="translate(366.550638 306.49478) scale(0.09 -0.09)">
       <use xlink:href="#DejaVuSans-32"/>
       <use xlink:href="#DejaVuSans-30" transform="translate(63.623047 0)"/>
       <use xlink:href="#DejaVuSans-32" transform="translate(127.246094 0)"/>
       <use xlink:href="#DejaVuSans-30" transform="translate(190.869141 0)"/>
      </g>
     </g>
    </g>
    <g id="xtick_4">
     <g id="line2d_5"/>
     <g id="text_4">
      <!-- 2022 -->
      <g style="fill: #6f655d" transform="translate(485.71674 306.49478) scale(0.09 -0.09)">
       <use xlink:href="#DejaVuSans-32"/>
       <use xlink:href="#DejaVuSans-30" transform="translate(63.623047 0)"/>
       <use xlink:href="#DejaVuSans-32" transform="translate(127.246094 0)"/>
       <use xlink:href="#DejaVuSans-32" transform="translate(190.869141 0)"/>
      </g>
     </g>
    </g>
    <g id="xtick_5">
     <g id="line2d_6"/>
     <g id="text_5">
      <!-- 2024 -->
      <g style="fill: #6f655d" transform="translate(604.882842 306.49478) scale(0.09 -0.09)">
       <defs>
        <path id="DejaVuSans-34" d="M 2419 4116 
L 825 1625 
L 2419 1625 
L 2419 4116 
z
M 2253 4666 
L 3047 4666 
L 3047 1625 
L 3713 1625 
L 3713 1100 
L 3047 1100 
L 3047 0 
L 2419 0 
L 2419 1100 
L 313 1100 
L 313 1709 
L 2253 4666 
z
" transform="scale(0.015625)"/>
       </defs>
       <use xlink:href="#DejaVuSans-32"/>
       <use xlink:href="#DejaVuSans-30" transform="translate(63.623047 0)"/>
       <use xlink:href="#DejaVuSans-32" transform="translate(127.246094 0)"/>
       <use xlink:href="#DejaVuSans-34" transform="translate(190.869141 0)"/>
      </g>
     </g>
    </g>
    <g id="xtick_6">
     <g id="line2d_7"/>
     <g id="text_6">
      <!-- 2026 -->
      <g style="fill: #6f655d" transform="translate(724.048943 306.49478) scale(0.09 -0.09)">
       <defs>
        <path id="DejaVuSans-36" d="M 2113 2584 
Q 1688 2584 1439 2293 
Q 1191 2003 1191 1497 
Q 1191 994 1439 701 
Q 1688 409 2113 409 
Q 2538 409 2786 701 
Q 3034 994 3034 1497 
Q 3034 2003 2786 2293 
Q 2538 2584 2113 2584 
z
M 3366 4563 
L 3366 3988 
Q 3128 4100 2886 4159 
Q 2644 4219 2406 4219 
Q 1781 4219 1451 3797 
Q 1122 3375 1075 2522 
Q 1259 2794 1537 2939 
Q 1816 3084 2150 3084 
Q 2853 3084 3261 2657 
Q 3669 2231 3669 1497 
Q 3669 778 3244 343 
Q 2819 -91 2113 -91 
Q 1303 -91 875 529 
Q 447 1150 447 2328 
Q 447 3434 972 4092 
Q 1497 4750 2381 4750 
Q 2619 4750 2861 4703 
Q 3103 4656 3366 4563 
z
" transform="scale(0.015625)"/>
       </defs>
       <use xlink:href="#DejaVuSans-32"/>
       <use xlink:href="#DejaVuSans-30" transform="translate(63.623047 0)"/>
       <use xlink:href="#DejaVuSans-32" transform="translate(127.246094 0)"/>
       <use xlink:href="#DejaVuSans-36" transform="translate(190.869141 0)"/>
      </g>
     </g>
    </g>
    <g id="text_7">
     <!-- Benchmark introduction year -->
     <g style="fill: #6f655d" transform="translate(342.845859 329.585014) scale(0.095 -0.095)">
      <defs>
       <path id="DejaVuSerif-42" d="M 1581 331 
L 2516 331 
Q 3078 331 3337 575 
Q 3597 819 3597 1350 
Q 3597 1878 3339 2120 
Q 3081 2363 2516 2363 
L 1581 2363 
L 1581 331 
z
M 1581 2694 
L 2375 2694 
Q 2888 2694 3123 2891 
Q 3359 3088 3359 3513 
Q 3359 3941 3123 4136 
Q 2888 4331 2375 4331 
L 1581 4331 
L 1581 2694 
z
M 353 0 
L 353 331 
L 947 331 
L 947 4331 
L 353 4331 
L 353 4666 
L 2656 4666 
Q 3363 4666 3720 4377 
Q 4078 4088 4078 3513 
Q 4078 3097 3829 2850 
Q 3581 2603 3103 2547 
Q 3697 2472 4005 2167 
Q 4313 1863 4313 1350 
Q 4313 656 3875 328 
Q 3438 0 2509 0 
L 353 0 
z
" transform="scale(0.015625)"/>
       <path id="DejaVuSerif-65" d="M 3469 1600 
L 991 1600 
L 991 1575 
Q 991 903 1244 561 
Q 1497 219 1991 219 
Q 2369 219 2611 417 
Q 2853 616 2950 1006 
L 3413 1006 
Q 3275 459 2904 184 
Q 2534 -91 1931 -91 
Q 1203 -91 761 389 
Q 319 869 319 1663 
Q 319 2450 753 2931 
Q 1188 3413 1894 3413 
Q 2647 3413 3050 2948 
Q 3453 2484 3469 1600 
z
M 2791 1931 
Q 2772 2513 2545 2808 
Q 2319 3103 1894 3103 
Q 1497 3103 1269 2806 
Q 1041 2509 991 1931 
L 2791 1931 
z
" transform="scale(0.015625)"/>
       <path id="DejaVuSerif-6e" d="M 263 0 
L 263 331 
L 781 331 
L 781 2988 
L 231 2988 
L 231 3322 
L 1356 3322 
L 1356 2731 
Q 1516 3069 1770 3241 
Q 2025 3413 2363 3413 
Q 2913 3413 3172 3097 
Q 3431 2781 3431 2113 
L 3431 331 
L 3944 331 
L 3944 0 
L 2356 0 
L 2356 331 
L 2853 331 
L 2853 1931 
Q 2853 2541 2703 2767 
Q 2553 2994 2175 2994 
Q 1775 2994 1565 2701 
Q 1356 2409 1356 1850 
L 1356 331 
L 1856 331 
L 1856 0 
L 263 0 
z
" transform="scale(0.015625)"/>
       <path id="DejaVuSerif-63" d="M 3291 997 
Q 3169 466 2822 187 
Q 2475 -91 1925 -91 
Q 1200 -91 759 389 
Q 319 869 319 1663 
Q 319 2459 759 2936 
Q 1200 3413 1925 3413 
Q 2241 3413 2553 3339 
Q 2866 3266 3181 3116 
L 3181 2266 
L 2847 2266 
Q 2781 2703 2561 2903 
Q 2341 3103 1931 3103 
Q 1466 3103 1228 2742 
Q 991 2381 991 1663 
Q 991 944 1227 581 
Q 1463 219 1931 219 
Q 2303 219 2525 412 
Q 2747 606 2828 997 
L 3291 997 
z
" transform="scale(0.015625)"/>
       <path id="DejaVuSerif-68" d="M 263 0 
L 263 331 
L 781 331 
L 781 4531 
L 231 4531 
L 231 4863 
L 1356 4863 
L 1356 2731 
Q 1516 3069 1770 3241 
Q 2025 3413 2363 3413 
Q 2913 3413 3172 3097 
Q 3431 2781 3431 2113 
L 3431 331 
L 3944 331 
L 3944 0 
L 2356 0 
L 2356 331 
L 2853 331 
L 2853 1931 
Q 2853 2541 2704 2764 
Q 2556 2988 2175 2988 
Q 1775 2988 1565 2697 
Q 1356 2406 1356 1850 
L 1356 331 
L 1856 331 
L 1856 0 
L 263 0 
z
" transform="scale(0.015625)"/>
       <path id="DejaVuSerif-6d" d="M 3316 2675 
Q 3481 3041 3739 3227 
Q 3997 3413 4341 3413 
Q 4863 3413 5119 3089 
Q 5375 2766 5375 2113 
L 5375 331 
L 5894 331 
L 5894 0 
L 4300 0 
L 4300 331 
L 4800 331 
L 4800 2047 
Q 4800 2556 4650 2772 
Q 4500 2988 4153 2988 
Q 3769 2988 3567 2697 
Q 3366 2406 3366 1850 
L 3366 331 
L 3866 331 
L 3866 0 
L 2291 0 
L 2291 331 
L 2791 331 
L 2791 2069 
Q 2791 2566 2641 2777 
Q 2491 2988 2144 2988 
Q 1759 2988 1557 2697 
Q 1356 2406 1356 1850 
L 1356 331 
L 1856 331 
L 1856 0 
L 263 0 
L 263 331 
L 781 331 
L 781 2994 
L 231 2994 
L 231 3322 
L 1356 3322 
L 1356 2731 
Q 1516 3063 1762 3238 
Q 2009 3413 2322 3413 
Q 2709 3413 2968 3220 
Q 3228 3028 3316 2675 
z
" transform="scale(0.015625)"/>
       <path id="DejaVuSerif-61" d="M 2547 1044 
L 2547 1747 
L 1806 1747 
Q 1378 1747 1168 1562 
Q 959 1378 959 997 
Q 959 650 1171 447 
Q 1384 244 1747 244 
Q 2106 244 2326 466 
Q 2547 688 2547 1044 
z
M 3122 2075 
L 3122 331 
L 3634 331 
L 3634 0 
L 2547 0 
L 2547 359 
Q 2356 128 2106 18 
Q 1856 -91 1522 -91 
Q 969 -91 644 203 
Q 319 497 319 997 
Q 319 1513 691 1797 
Q 1063 2081 1741 2081 
L 2547 2081 
L 2547 2309 
Q 2547 2688 2317 2895 
Q 2088 3103 1672 3103 
Q 1328 3103 1125 2947 
Q 922 2791 872 2484 
L 575 2484 
L 575 3156 
Q 875 3284 1158 3348 
Q 1441 3413 1709 3413 
Q 2400 3413 2761 3070 
Q 3122 2728 3122 2075 
z
" transform="scale(0.015625)"/>
       <path id="DejaVuSerif-72" d="M 3059 3328 
L 3059 2497 
L 2728 2497 
Q 2713 2744 2591 2866 
Q 2469 2988 2234 2988 
Q 1809 2988 1582 2694 
Q 1356 2400 1356 1850 
L 1356 331 
L 2022 331 
L 2022 0 
L 263 0 
L 263 331 
L 781 331 
L 781 2994 
L 231 2994 
L 231 3322 
L 1356 3322 
L 1356 2731 
Q 1525 3078 1790 3245 
Q 2056 3413 2438 3413 
Q 2578 3413 2733 3391 
Q 2888 3369 3059 3328 
z
" transform="scale(0.015625)"/>
       <path id="DejaVuSerif-6b" d="M 1831 0 
L 219 0 
L 219 331 
L 738 331 
L 738 4531 
L 184 4531 
L 184 4863 
L 1313 4863 
L 1313 1697 
L 2713 2988 
L 2234 2988 
L 2234 3322 
L 3738 3322 
L 3738 2988 
L 3169 2988 
L 2181 2075 
L 3444 331 
L 3922 331 
L 3922 0 
L 2284 0 
L 2284 331 
L 2759 331 
L 1766 1697 
L 1313 1275 
L 1313 331 
L 1831 331 
L 1831 0 
z
" transform="scale(0.015625)"/>
       <path id="DejaVuSerif-20" transform="scale(0.015625)"/>
       <path id="DejaVuSerif-69" d="M 622 4353 
Q 622 4497 726 4603 
Q 831 4709 978 4709 
Q 1122 4709 1226 4603 
Q 1331 4497 1331 4353 
Q 1331 4206 1228 4103 
Q 1125 4000 978 4000 
Q 831 4000 726 4103 
Q 622 4206 622 4353 
z
M 1356 331 
L 1900 331 
L 1900 0 
L 231 0 
L 231 331 
L 781 331 
L 781 2988 
L 231 2988 
L 231 3322 
L 1356 3322 
L 1356 331 
z
" transform="scale(0.015625)"/>
       <path id="DejaVuSerif-74" d="M 691 2988 
L 184 2988 
L 184 3322 
L 691 3322 
L 691 4353 
L 1269 4353 
L 1269 3322 
L 2350 3322 
L 2350 2988 
L 1269 2988 
L 1269 878 
Q 1269 456 1350 337 
Q 1431 219 1650 219 
Q 1875 219 1978 351 
Q 2081 484 2088 781 
L 2522 781 
Q 2497 328 2275 118 
Q 2053 -91 1600 -91 
Q 1103 -91 897 129 
Q 691 350 691 878 
L 691 2988 
z
" transform="scale(0.015625)"/>
       <path id="DejaVuSerif-6f" d="M 1925 219 
Q 2388 219 2623 584 
Q 2859 950 2859 1663 
Q 2859 2375 2623 2739 
Q 2388 3103 1925 3103 
Q 1463 3103 1227 2739 
Q 991 2375 991 1663 
Q 991 950 1228 584 
Q 1466 219 1925 219 
z
M 1925 -91 
Q 1200 -91 759 389 
Q 319 869 319 1663 
Q 319 2456 758 2934 
Q 1197 3413 1925 3413 
Q 2653 3413 3092 2934 
Q 3531 2456 3531 1663 
Q 3531 869 3092 389 
Q 2653 -91 1925 -91 
z
" transform="scale(0.015625)"/>
       <path id="DejaVuSerif-64" d="M 3359 331 
L 3909 331 
L 3909 0 
L 2784 0 
L 2784 519 
Q 2616 206 2355 57 
Q 2094 -91 1709 -91 
Q 1097 -91 708 395 
Q 319 881 319 1663 
Q 319 2444 706 2928 
Q 1094 3413 1709 3413 
Q 2094 3413 2355 3264 
Q 2616 3116 2784 2803 
L 2784 4531 
L 2241 4531 
L 2241 4863 
L 3359 4863 
L 3359 331 
z
M 2784 1497 
L 2784 1825 
Q 2784 2422 2554 2737 
Q 2325 3053 1888 3053 
Q 1444 3053 1217 2703 
Q 991 2353 991 1663 
Q 991 975 1217 622 
Q 1444 269 1888 269 
Q 2325 269 2554 583 
Q 2784 897 2784 1497 
z
" transform="scale(0.015625)"/>
       <path id="DejaVuSerif-75" d="M 2266 3322 
L 3341 3322 
L 3341 331 
L 3884 331 
L 3884 0 
L 2766 0 
L 2766 588 
Q 2606 256 2353 82 
Q 2100 -91 1766 -91 
Q 1213 -91 952 223 
Q 691 538 691 1209 
L 691 2988 
L 172 2988 
L 172 3322 
L 1269 3322 
L 1269 1388 
Q 1269 781 1417 556 
Q 1566 331 1947 331 
Q 2347 331 2556 625 
Q 2766 919 2766 1478 
L 2766 2988 
L 2266 2988 
L 2266 3322 
z
" transform="scale(0.015625)"/>
       <path id="DejaVuSerif-79" d="M 1381 -609 
L 1600 -56 
L 359 2988 
L -19 2988 
L -19 3322 
L 1509 3322 
L 1509 2988 
L 978 2988 
L 1913 703 
L 2847 2988 
L 2350 2988 
L 2350 3322 
L 3597 3322 
L 3597 2988 
L 3225 2988 
L 1703 -750 
Q 1547 -1138 1356 -1280 
Q 1166 -1422 819 -1422 
Q 672 -1422 517 -1397 
Q 363 -1372 206 -1325 
L 206 -691 
L 500 -691 
Q 519 -903 608 -995 
Q 697 -1088 884 -1088 
Q 1056 -1088 1161 -992 
Q 1266 -897 1381 -609 
z
" transform="scale(0.015625)"/>
      </defs>
      <use xlink:href="#DejaVuSerif-42"/>
      <use xlink:href="#DejaVuSerif-65" transform="translate(73.486328 0)"/>
      <use xlink:href="#DejaVuSerif-6e" transform="translate(132.666016 0)"/>
      <use xlink:href="#DejaVuSerif-63" transform="translate(197.070312 0)"/>
      <use xlink:href="#DejaVuSerif-68" transform="translate(253.076172 0)"/>
      <use xlink:href="#DejaVuSerif-6d" transform="translate(317.480469 0)"/>
      <use xlink:href="#DejaVuSerif-61" transform="translate(412.304688 0)"/>
      <use xlink:href="#DejaVuSerif-72" transform="translate(471.923828 0)"/>
      <use xlink:href="#DejaVuSerif-6b" transform="translate(519.726562 0)"/>
      <use xlink:href="#DejaVuSerif-20" transform="translate(580.322266 0)"/>
      <use xlink:href="#DejaVuSerif-69" transform="translate(612.109375 0)"/>
      <use xlink:href="#DejaVuSerif-6e" transform="translate(644.091797 0)"/>
      <use xlink:href="#DejaVuSerif-74" transform="translate(708.496094 0)"/>
      <use xlink:href="#DejaVuSerif-72" transform="translate(748.681641 0)"/>
      <use xlink:href="#DejaVuSerif-6f" transform="translate(796.484375 0)"/>
      <use xlink:href="#DejaVuSerif-64" transform="translate(856.689453 0)"/>
      <use xlink:href="#DejaVuSerif-75" transform="translate(920.703125 0)"/>
      <use xlink:href="#DejaVuSerif-63" transform="translate(985.107422 0)"/>
      <use xlink:href="#DejaVuSerif-74" transform="translate(1041.113281 0)"/>
      <use xlink:href="#DejaVuSerif-69" transform="translate(1081.298828 0)"/>
      <use xlink:href="#DejaVuSerif-6f" transform="translate(1113.28125 0)"/>
      <use xlink:href="#DejaVuSerif-6e" transform="translate(1173.486328 0)"/>
      <use xlink:href="#DejaVuSerif-20" transform="translate(1237.890625 0)"/>
      <use xlink:href="#DejaVuSerif-79" transform="translate(1269.677734 0)"/>
      <use xlink:href="#DejaVuSerif-65" transform="translate(1326.171875 0)"/>
      <use xlink:href="#DejaVuSerif-61" transform="translate(1385.351562 0)"/>
      <use xlink:href="#DejaVuSerif-72" transform="translate(1444.970703 0)"/>
     </g>
    </g>
   </g>
   <g id="matplotlib.axis_2">
    <g id="ytick_1">
     <g id="line2d_8">
      <path d="M 62.212969 291.656186 
L 765.292969 291.656186 
" clip-path="url(#pb3b9016b6d)" style="fill: none; stroke-dasharray: 1.6,3.2; stroke-dashoffset: 0; stroke: #c8b59f; stroke-opacity: 0.7; stroke-width: 0.8"/>
     </g>
     <g id="line2d_9"/>
     <g id="text_8">
      <!-- 0 -->
      <g style="fill: #6f655d" transform="translate(50.486719 295.075483) scale(0.09 -0.09)">
       <use xlink:href="#DejaVuSans-30"/>
      </g>
     </g>
    </g>
    <g id="ytick_2">
     <g id="line2d_10">
      <path d="M 62.212969 243.977786 
L 765.292969 243.977786 
" clip-path="url(#pb3b9016b6d)" style="fill: none; stroke-dasharray: 1.6,3.2; stroke-dashoffset: 0; stroke: #c8b59f; stroke-opacity: 0.7; stroke-width: 0.8"/>
     </g>
     <g id="line2d_11"/>
     <g id="text_9">
      <!-- 20 -->
      <g style="fill: #6f655d" transform="translate(44.760469 247.397083) scale(0.09 -0.09)">
       <use xlink:href="#DejaVuSans-32"/>
       <use xlink:href="#DejaVuSans-30" transform="translate(63.623047 0)"/>
      </g>
     </g>
    </g>
    <g id="ytick_3">
     <g id="line2d_12">
      <path d="M 62.212969 196.299386 
L 765.292969 196.299386 
" clip-path="url(#pb3b9016b6d)" style="fill: none; stroke-dasharray: 1.6,3.2; stroke-dashoffset: 0; stroke: #c8b59f; stroke-opacity: 0.7; stroke-width: 0.8"/>
     </g>
     <g id="line2d_13"/>
     <g id="text_10">
      <!-- 40 -->
      <g style="fill: #6f655d" transform="translate(44.760469 199.718683) scale(0.09 -0.09)">
       <use xlink:href="#DejaVuSans-34"/>
       <use xlink:href="#DejaVuSans-30" transform="translate(63.623047 0)"/>
      </g>
     </g>
    </g>
    <g id="ytick_4">
     <g id="line2d_14">
      <path d="M 62.212969 148.620986 
L 765.292969 148.620986 
" clip-path="url(#pb3b9016b6d)" style="fill: none; stroke-dasharray: 1.6,3.2; stroke-dashoffset: 0; stroke: #c8b59f; stroke-opacity: 0.7; stroke-width: 0.8"/>
     </g>
     <g id="line2d_15"/>
     <g id="text_11">
      <!-- 60 -->
      <g style="fill: #6f655d" transform="translate(44.760469 152.040283) scale(0.09 -0.09)">
       <use xlink:href="#DejaVuSans-36"/>
       <use xlink:href="#DejaVuSans-30" transform="translate(63.623047 0)"/>
      </g>
     </g>
    </g>
    <g id="ytick_5">
     <g id="line2d_16">
      <path d="M 62.212969 100.942586 
L 765.292969 100.942586 
" clip-path="url(#pb3b9016b6d)" style="fill: none; stroke-dasharray: 1.6,3.2; stroke-dashoffset: 0; stroke: #c8b59f; stroke-opacity: 0.7; stroke-width: 0.8"/>
     </g>
     <g id="line2d_17"/>
     <g id="text_12">
      <!-- 80 -->
      <g style="fill: #6f655d" transform="translate(44.760469 104.361883) scale(0.09 -0.09)">
       <use xlink:href="#DejaVuSans-38"/>
       <use xlink:href="#DejaVuSans-30" transform="translate(63.623047 0)"/>
      </g>
     </g>
    </g>
    <g id="ytick_6">
     <g id="line2d_18">
      <path d="M 62.212969 53.264186 
L 765.292969 53.264186 
" clip-path="url(#pb3b9016b6d)" style="fill: none; stroke-dasharray: 1.6,3.2; stroke-dashoffset: 0; stroke: #c8b59f; stroke-opacity: 0.7; stroke-width: 0.8"/>
     </g>
     <g id="line2d_19"/>
     <g id="text_13">
      <!-- 100 -->
      <g style="fill: #6f655d" transform="translate(39.034219 56.683483) scale(0.09 -0.09)">
       <use xlink:href="#DejaVuSans-31"/>
       <use xlink:href="#DejaVuSans-30" transform="translate(63.623047 0)"/>
       <use xlink:href="#DejaVuSans-30" transform="translate(127.246094 0)"/>
      </g>
     </g>
    </g>
    <g id="text_14">
     <!-- Reported value -->
     <g style="fill: #6f655d" transform="translate(23.058516 209.195499) rotate(-90) scale(0.095 -0.095)">
      <defs>
       <path id="DejaVuSerif-52" d="M 3066 2316 
Q 3284 2256 3442 2114 
Q 3600 1972 3725 1716 
L 4403 331 
L 4972 331 
L 4972 0 
L 3872 0 
L 3144 1484 
Q 2934 1916 2759 2042 
Q 2584 2169 2278 2169 
L 1581 2169 
L 1581 331 
L 2241 331 
L 2241 0 
L 353 0 
L 353 331 
L 947 331 
L 947 4331 
L 353 4331 
L 353 4666 
L 2719 4666 
Q 3400 4666 3770 4341 
Q 4141 4016 4141 3419 
Q 4141 2938 3870 2661 
Q 3600 2384 3066 2316 
z
M 1581 2503 
L 2503 2503 
Q 2975 2503 3200 2726 
Q 3425 2950 3425 3419 
Q 3425 3888 3200 4109 
Q 2975 4331 2503 4331 
L 1581 4331 
L 1581 2503 
z
" transform="scale(0.015625)"/>
       <path id="DejaVuSerif-70" d="M 1313 1825 
L 1313 1497 
Q 1313 897 1542 583 
Q 1772 269 2209 269 
Q 2650 269 2876 622 
Q 3103 975 3103 1663 
Q 3103 2353 2876 2703 
Q 2650 3053 2209 3053 
Q 1772 3053 1542 2737 
Q 1313 2422 1313 1825 
z
M 738 2988 
L 184 2988 
L 184 3322 
L 1313 3322 
L 1313 2803 
Q 1481 3116 1742 3264 
Q 2003 3413 2388 3413 
Q 3000 3413 3387 2928 
Q 3775 2444 3775 1663 
Q 3775 881 3387 395 
Q 3000 -91 2388 -91 
Q 2003 -91 1742 57 
Q 1481 206 1313 519 
L 1313 -997 
L 1856 -997 
L 1856 -1331 
L 184 -1331 
L 184 -997 
L 738 -997 
L 738 2988 
z
" transform="scale(0.015625)"/>
       <path id="DejaVuSerif-76" d="M 1581 0 
L 359 2988 
L -19 2988 
L -19 3322 
L 1509 3322 
L 1509 2988 
L 978 2988 
L 1913 703 
L 2847 2988 
L 2350 2988 
L 2350 3322 
L 3597 3322 
L 3597 2988 
L 3225 2988 
L 2003 0 
L 1581 0 
z
" transform="scale(0.015625)"/>
       <path id="DejaVuSerif-6c" d="M 1313 331 
L 1856 331 
L 1856 0 
L 184 0 
L 184 331 
L 738 331 
L 738 4531 
L 184 4531 
L 184 4863 
L 1313 4863 
L 1313 331 
z
" transform="scale(0.015625)"/>
      </defs>
      <use xlink:href="#DejaVuSerif-52"/>
      <use xlink:href="#DejaVuSerif-65" transform="translate(75.292969 0)"/>
      <use xlink:href="#DejaVuSerif-70" transform="translate(134.472656 0)"/>
      <use xlink:href="#DejaVuSerif-6f" transform="translate(198.486328 0)"/>
      <use xlink:href="#DejaVuSerif-72" transform="translate(258.691406 0)"/>
      <use xlink:href="#DejaVuSerif-74" transform="translate(306.494141 0)"/>
      <use xlink:href="#DejaVuSerif-65" transform="translate(346.679688 0)"/>
      <use xlink:href="#DejaVuSerif-64" transform="translate(405.859375 0)"/>
      <use xlink:href="#DejaVuSerif-20" transform="translate(469.873047 0)"/>
      <use xlink:href="#DejaVuSerif-76" transform="translate(501.660156 0)"/>
      <use xlink:href="#DejaVuSerif-61" transform="translate(558.154297 0)"/>
      <use xlink:href="#DejaVuSerif-6c" transform="translate(617.773438 0)"/>
      <use xlink:href="#DejaVuSerif-75" transform="translate(649.755859 0)"/>
      <use xlink:href="#DejaVuSerif-65" transform="translate(714.160156 0)"/>
     </g>
    </g>
   </g>
   <g id="PathCollection_1">
    <path d="M 80.087884 93.60232 
C 82.054683 93.60232 83.941191 92.820902 85.331928 91.430166 
C 86.722665 90.039429 87.504082 88.15292 87.504082 86.186121 
C 87.504082 84.219323 86.722665 82.332814 85.331928 80.942077 
C 83.941191 79.55134 82.054683 78.769923 80.087884 78.769923 
C 78.121085 78.769923 76.234577 79.55134 74.84384 80.942077 
C 73.453103 82.332814 72.671686 84.219323 72.671686 86.186121 
C 72.671686 88.15292 73.453103 90.039429 74.84384 91.430166 
C 76.234577 92.820902 78.121085 93.60232 80.087884 93.60232 
L 80.087884 93.60232 
z
" clip-path="url(#pb3b9016b6d)" style="fill: none; stroke: #d9c2a7; stroke-opacity: 0.5"/>
   </g>
   <g id="PathCollection_2">
    <path d="M 308.290969 131.363613 
C 310.257768 131.363613 312.144276 130.582195 313.535013 129.191458 
C 314.92575 127.800722 315.707167 125.914213 315.707167 123.947414 
C 315.707167 121.980615 314.92575 120.094107 313.535013 118.70337 
C 312.144276 117.312633 310.257768 116.531216 308.290969 116.531216 
C 306.32417 116.531216 304.437661 117.312633 303.046925 118.70337 
C 301.656188 120.094107 300.87477 121.980615 300.87477 123.947414 
C 300.87477 125.914213 301.656188 127.800722 303.046925 129.191458 
C 304.437661 130.582195 306.32417 131.363613 308.290969 131.363613 
L 308.290969 131.363613 
z
" clip-path="url(#pb3b9016b6d)" style="fill: none; stroke: #d9c2a7; stroke-opacity: 0.5"/>
   </g>
   <g id="PathCollection_3">
    <path d="M 373.236494 171.175077 
C 375.203293 171.175077 377.089802 170.393659 378.480538 169.002922 
C 379.871275 167.612186 380.652693 165.725677 380.652693 163.758878 
C 380.652693 161.792079 379.871275 159.905571 378.480538 158.514834 
C 377.089802 157.124097 375.203293 156.34268 373.236494 156.34268 
C 371.269695 156.34268 369.383187 157.124097 367.99245 158.514834 
C 366.601713 159.905571 365.820296 161.792079 365.820296 163.758878 
C 365.820296 165.725677 366.601713 167.612186 367.99245 169.002922 
C 369.383187 170.393659 371.269695 171.175077 373.236494 171.175077 
L 373.236494 171.175077 
z
" clip-path="url(#pb3b9016b6d)" style="fill: none; stroke: #d9c2a7; stroke-opacity: 0.5"/>
   </g>
   <g id="PathCollection_4">
    <path d="M 422.690426 94.770441 
C 424.657225 94.770441 426.543734 93.989023 427.934471 92.598286 
C 429.325207 91.20755 430.106625 89.321041 430.106625 87.354242 
C 430.106625 85.387443 429.325207 83.500935 427.934471 82.110198 
C 426.543734 80.719461 424.657225 79.938044 422.690426 79.938044 
C 420.723628 79.938044 418.837119 80.719461 417.446382 82.110198 
C 416.055645 83.500935 415.274228 85.387443 415.274228 87.354242 
C 415.274228 89.321041 416.055645 91.20755 417.446382 92.598286 
C 418.837119 93.989023 420.723628 94.770441 422.690426 94.770441 
L 422.690426 94.770441 
z
" clip-path="url(#pb3b9016b6d)" style="fill: none; stroke: #d9c2a7; stroke-opacity: 0.5"/>
   </g>
   <g id="PathCollection_5">
    <path d="M 516.831647 126.357381 
C 518.798446 126.357381 520.684954 125.575963 522.075691 124.185226 
C 523.466428 122.79449 524.247845 120.907981 524.247845 118.941182 
C 524.247845 116.974383 523.466428 115.087875 522.075691 113.697138 
C 520.684954 112.306401 518.798446 111.524984 516.831647 111.524984 
C 514.864848 111.524984 512.978339 112.306401 511.587602 113.697138 
C 510.196866 115.087875 509.415448 116.974383 509.415448 118.941182 
C 509.415448 120.907981 510.196866 122.79449 511.587602 124.185226 
C 512.978339 125.575963 514.864848 126.357381 516.831647 126.357381 
L 516.831647 126.357381 
z
" clip-path="url(#pb3b9016b6d)" style="fill: none; stroke: #d9c2a7; stroke-opacity: 0.5"/>
   </g>
   <g id="PathCollection_6">
    <path d="M 611.568698 171.294273 
C 613.535496 171.294273 615.422005 170.512855 616.812742 169.122118 
C 618.203479 167.731382 618.984896 165.844873 618.984896 163.878074 
C 618.984896 161.911275 618.203479 160.024767 616.812742 158.63403 
C 615.422005 157.243293 613.535496 156.461876 611.568698 156.461876 
C 609.601899 156.461876 607.71539 157.243293 606.324653 158.63403 
C 604.933917 160.024767 604.152499 161.911275 604.152499 163.878074 
C 604.152499 165.844873 604.933917 167.731382 606.324653 169.122118 
C 607.71539 170.512855 609.601899 171.294273 611.568698 171.294273 
L 611.568698 171.294273 
z
" clip-path="url(#pb3b9016b6d)" style="fill: none; stroke: #d9c2a7; stroke-opacity: 0.5"/>
   </g>
   <g id="PathCollection_7">
    <path d="M 646.126867 155.083617 
C 648.093666 155.083617 649.980175 154.302199 651.370911 152.911462 
C 652.761648 151.520726 653.543066 149.634217 653.543066 147.667418 
C 653.543066 145.700619 652.761648 143.814111 651.370911 142.423374 
C 649.980175 141.032637 648.093666 140.25122 646.126867 140.25122 
C 644.160068 140.25122 642.27356 141.032637 640.882823 142.423374 
C 639.492086 143.814111 638.710669 145.700619 638.710669 147.667418 
C 638.710669 149.634217 639.492086 151.520726 640.882823 152.911462 
C 642.27356 154.302199 644.160068 155.083617 646.126867 155.083617 
L 646.126867 155.083617 
z
" clip-path="url(#pb3b9016b6d)" style="fill: none; stroke: #d9c2a7; stroke-opacity: 0.5"/>
   </g>
   <g id="PathCollection_8">
    <path d="M 671.151748 208.006641 
C 673.118547 208.006641 675.005056 207.225223 676.395793 205.834486 
C 677.786529 204.44375 678.567947 202.557241 678.567947 200.590442 
C 678.567947 198.623643 677.786529 196.737135 676.395793 195.346398 
C 675.005056 193.955661 673.118547 193.174244 671.151748 193.174244 
C 669.18495 193.174244 667.298441 193.955661 665.907704 195.346398 
C 664.516967 196.737135 663.73555 198.623643 663.73555 200.590442 
C 663.73555 202.557241 664.516967 204.44375 665.907704 205.834486 
C 667.298441 207.225223 669.18495 208.006641 671.151748 208.006641 
L 671.151748 208.006641 
z
" clip-path="url(#pb3b9016b6d)" style="fill: none; stroke: #d9c2a7; stroke-opacity: 0.5"/>
   </g>
   <g id="PathCollection_9">
    <path d="M 738.480596 269.750169 
C 740.447395 269.750169 742.333903 268.968751 743.72464 267.578014 
C 745.115377 266.187278 745.896794 264.300769 745.896794 262.33397 
C 745.896794 260.367171 745.115377 258.480663 743.72464 257.089926 
C 742.333903 255.699189 740.447395 254.917772 738.480596 254.917772 
C 736.513797 254.917772 734.627288 255.699189 733.236552 257.089926 
C 731.845815 258.480663 731.064397 260.367171 731.064397 262.33397 
C 731.064397 264.300769 731.845815 266.187278 733.236552 267.578014 
C 734.627288 268.968751 736.513797 269.750169 738.480596 269.750169 
L 738.480596 269.750169 
z
" clip-path="url(#pb3b9016b6d)" style="fill: none; stroke: #d9c2a7; stroke-opacity: 0.5"/>
   </g>
   <g id="PathCollection_10">
    <path d="M 746.226392 298.118817 
C 748.193191 298.118817 750.0797 297.337399 751.470437 295.946662 
C 752.861174 294.555926 753.642591 292.669417 753.642591 290.702618 
C 753.642591 288.735819 752.861174 286.849311 751.470437 285.458574 
C 750.0797 284.067837 748.193191 283.28642 746.226392 283.28642 
C 744.259594 283.28642 742.373085 284.067837 740.982348 285.458574 
C 739.591611 286.849311 738.810194 288.735819 738.810194 290.702618 
C 738.810194 292.669417 739.591611 294.555926 740.982348 295.946662 
C 742.373085 297.337399 744.259594 298.118817 746.226392 298.118817 
L 746.226392 298.118817 
z
" clip-path="url(#pb3b9016b6d)" style="fill: none; stroke: #d9c2a7; stroke-opacity: 0.5"/>
   </g>
   <g id="patch_3">
    <path d="M 62.212969 291.656186 
L 62.212969 53.264186 
" style="fill: none; stroke: #c8b59f; stroke-width: 0.95; stroke-linejoin: miter; stroke-linecap: square"/>
   </g>
   <g id="patch_4">
    <path d="M 62.212969 291.656186 
L 765.292969 291.656186 
" style="fill: none; stroke: #c8b59f; stroke-width: 0.95; stroke-linejoin: miter; stroke-linecap: square"/>
   </g>
   <g id="PathCollection_11">
    <defs>
     <path id="mf462ce48c9" d="M 0 3.807887 
C 1.009863 3.807887 1.978501 3.406664 2.692582 2.692582 
C 3.406664 1.978501 3.807887 1.009863 3.807887 0 
C 3.807887 -1.009863 3.406664 -1.978501 2.692582 -2.692582 
C 1.978501 -3.406664 1.009863 -3.807887 0 -3.807887 
C -1.009863 -3.807887 -1.978501 -3.406664 -2.692582 -2.692582 
C -3.406664 -1.978501 -3.807887 -1.009863 -3.807887 0 
C -3.807887 1.009863 -3.406664 1.978501 -2.692582 2.692582 
C -1.978501 3.406664 -1.009863 3.807887 0 3.807887 
z
" style="stroke: #6f3f2b; stroke-width: 1.2"/>
    </defs>
    <g clip-path="url(#pb3b9016b6d)">
     <use xlink:href="#mf462ce48c9" x="80.087884" y="86.186121" style="fill: #f8f4ee; stroke: #6f3f2b; stroke-width: 1.2"/>
    </g>
   </g>
   <g id="PathCollection_12">
    <g clip-path="url(#pb3b9016b6d)">
     <use xlink:href="#mf462ce48c9" x="308.290969" y="123.947414" style="fill: #f8f4ee; stroke: #6f3f2b; stroke-width: 1.2"/>
    </g>
   </g>
   <g id="PathCollection_13">
    <g clip-path="url(#pb3b9016b6d)">
     <use xlink:href="#mf462ce48c9" x="373.236494" y="163.758878" style="fill: #f8f4ee; stroke: #6f3f2b; stroke-width: 1.2"/>
    </g>
   </g>
   <g id="PathCollection_14">
    <g clip-path="url(#pb3b9016b6d)">
     <use xlink:href="#mf462ce48c9" x="422.690426" y="87.354242" style="fill: #f8f4ee; stroke: #6f3f2b; stroke-width: 1.2"/>
    </g>
   </g>
   <g id="PathCollection_15">
    <g clip-path="url(#pb3b9016b6d)">
     <use xlink:href="#mf462ce48c9" x="516.831647" y="118.941182" style="fill: #f8f4ee; stroke: #6f3f2b; stroke-width: 1.2"/>
    </g>
   </g>
   <g id="PathCollection_16">
    <g clip-path="url(#pb3b9016b6d)">
     <use xlink:href="#mf462ce48c9" x="611.568698" y="163.878074" style="fill: #f8f4ee; stroke: #6f3f2b; stroke-width: 1.2"/>
    </g>
   </g>
   <g id="PathCollection_17">
    <g clip-path="url(#pb3b9016b6d)">
     <use xlink:href="#mf462ce48c9" x="646.126867" y="147.667418" style="fill: #f8f4ee; stroke: #6f3f2b; stroke-width: 1.2"/>
    </g>
   </g>
   <g id="PathCollection_18">
    <g clip-path="url(#pb3b9016b6d)">
     <use xlink:href="#mf462ce48c9" x="671.151748" y="200.590442" style="fill: #f8f4ee; stroke: #6f3f2b; stroke-width: 1.2"/>
    </g>
   </g>
   <g id="PathCollection_19">
    <g clip-path="url(#pb3b9016b6d)">
     <use xlink:href="#mf462ce48c9" x="738.480596" y="262.33397" style="fill: #f8f4ee; stroke: #6f3f2b; stroke-width: 1.2"/>
    </g>
   </g>
   <g id="PathCollection_20">
    <g clip-path="url(#pb3b9016b6d)">
     <use xlink:href="#mf462ce48c9" x="746.226392" y="290.702618" style="fill: #f8f4ee; stroke: #6f3f2b; stroke-width: 1.2"/>
    </g>
   </g>
   <g id="text_15">
    <!-- Fossil Record -->
    <g style="fill: #171310" transform="translate(62.212969 28.377422) scale(0.165 -0.165)">
     <defs>
      <path id="DejaVuSerif-46" d="M 353 0 
L 353 331 
L 947 331 
L 947 4331 
L 353 4331 
L 353 4666 
L 4172 4666 
L 4172 3628 
L 3788 3628 
L 3788 4281 
L 1581 4281 
L 1581 2719 
L 3175 2719 
L 3175 3303 
L 3559 3303 
L 3559 1753 
L 3175 1753 
L 3175 2338 
L 1581 2338 
L 1581 331 
L 2328 331 
L 2328 0 
L 353 0 
z
" transform="scale(0.015625)"/>
      <path id="DejaVuSerif-73" d="M 359 184 
L 359 959 
L 691 959 
Q 703 588 923 403 
Q 1144 219 1575 219 
Q 1963 219 2166 364 
Q 2369 509 2369 788 
Q 2369 1006 2220 1140 
Q 2072 1275 1594 1428 
L 1178 1569 
Q 750 1706 558 1912 
Q 366 2119 366 2438 
Q 366 2894 700 3153 
Q 1034 3413 1625 3413 
Q 1888 3413 2178 3344 
Q 2469 3275 2778 3144 
L 2778 2419 
L 2447 2419 
Q 2434 2741 2221 2922 
Q 2009 3103 1644 3103 
Q 1281 3103 1095 2975 
Q 909 2847 909 2591 
Q 909 2381 1050 2254 
Q 1191 2128 1613 1997 
L 2069 1856 
Q 2541 1709 2748 1489 
Q 2956 1269 2956 922 
Q 2956 450 2595 179 
Q 2234 -91 1600 -91 
Q 1278 -91 972 -22 
Q 666 47 359 184 
z
" transform="scale(0.015625)"/>
     </defs>
     <use xlink:href="#DejaVuSerif-46"/>
     <use xlink:href="#DejaVuSerif-6f" transform="translate(63.884766 0)"/>
     <use xlink:href="#DejaVuSerif-73" transform="translate(124.089844 0)"/>
     <use xlink:href="#DejaVuSerif-73" transform="translate(175.408203 0)"/>
     <use xlink:href="#DejaVuSerif-69" transform="translate(226.726562 0)"/>
     <use xlink:href="#DejaVuSerif-6c" transform="translate(258.708984 0)"/>
     <use xlink:href="#DejaVuSerif-20" transform="translate(290.691406 0)"/>
     <use xlink:href="#DejaVuSerif-52" transform="translate(322.478516 0)"/>
     <use xlink:href="#DejaVuSerif-65" transform="translate(397.771484 0)"/>
     <use xlink:href="#DejaVuSerif-63" transform="translate(456.951172 0)"/>
     <use xlink:href="#DejaVuSerif-6f" transform="translate(512.957031 0)"/>
     <use xlink:href="#DejaVuSerif-72" transform="translate(573.162109 0)"/>
     <use xlink:href="#DejaVuSerif-64" transform="translate(620.964844 0)"/>
    </g>
   </g>
   <g id="text_16">
    <!-- Measured benchmark values against benchmark introduction year. Metric families differ, so the shared axis is for reading the record, not direct equivalence. -->
    <g style="fill: #6f655d" transform="translate(62.212969 44.223832) scale(0.085 -0.085)">
     <defs>
      <path id="DejaVuSerif-4d" d="M 353 0 
L 353 331 
L 947 331 
L 947 4331 
L 319 4331 
L 319 4666 
L 1678 4666 
L 3316 1344 
L 4953 4666 
L 6228 4666 
L 6228 4331 
L 5606 4331 
L 5606 331 
L 6203 331 
L 6203 0 
L 4378 0 
L 4378 331 
L 4972 331 
L 4972 3938 
L 3372 684 
L 2931 684 
L 1331 3938 
L 1331 331 
L 1925 331 
L 1925 0 
L 353 0 
z
" transform="scale(0.015625)"/>
      <path id="DejaVuSerif-62" d="M 738 331 
L 738 4531 
L 184 4531 
L 184 4863 
L 1313 4863 
L 1313 2803 
Q 1481 3116 1742 3264 
Q 2003 3413 2388 3413 
Q 3000 3413 3387 2928 
Q 3775 2444 3775 1663 
Q 3775 881 3387 395 
Q 3000 -91 2388 -91 
Q 2003 -91 1742 57 
Q 1481 206 1313 519 
L 1313 0 
L 184 0 
L 184 331 
L 738 331 
z
M 1313 1497 
Q 1313 897 1542 583 
Q 1772 269 2209 269 
Q 2650 269 2876 622 
Q 3103 975 3103 1663 
Q 3103 2353 2876 2703 
Q 2650 3053 2209 3053 
Q 1772 3053 1542 2737 
Q 1313 2422 1313 1825 
L 1313 1497 
z
" transform="scale(0.015625)"/>
      <path id="DejaVuSerif-67" d="M 3359 2988 
L 3359 72 
Q 3359 -644 2965 -1033 
Q 2572 -1422 1844 -1422 
Q 1516 -1422 1216 -1362 
Q 916 -1303 641 -1184 
L 641 -488 
L 941 -488 
Q 997 -813 1206 -963 
Q 1416 -1113 1806 -1113 
Q 2313 -1113 2548 -827 
Q 2784 -541 2784 72 
L 2784 519 
Q 2616 206 2355 57 
Q 2094 -91 1709 -91 
Q 1097 -91 708 395 
Q 319 881 319 1663 
Q 319 2444 706 2928 
Q 1094 3413 1709 3413 
Q 2094 3413 2355 3264 
Q 2616 3116 2784 2803 
L 2784 3322 
L 3909 3322 
L 3909 2988 
L 3359 2988 
z
M 2784 1825 
Q 2784 2422 2554 2737 
Q 2325 3053 1888 3053 
Q 1444 3053 1217 2703 
Q 991 2353 991 1663 
Q 991 975 1217 622 
Q 1444 269 1888 269 
Q 2325 269 2554 583 
Q 2784 897 2784 1497 
L 2784 1825 
z
" transform="scale(0.015625)"/>
      <path id="DejaVuSerif-2e" d="M 603 325 
Q 603 500 722 622 
Q 841 744 1019 744 
Q 1191 744 1312 622 
Q 1434 500 1434 325 
Q 1434 153 1312 31 
Q 1191 -91 1019 -91 
Q 841 -91 722 29 
Q 603 150 603 325 
z
" transform="scale(0.015625)"/>
      <path id="DejaVuSerif-66" d="M 2753 4078 
L 2450 4078 
Q 2447 4313 2317 4434 
Q 2188 4556 1941 4556 
Q 1619 4556 1487 4379 
Q 1356 4203 1356 3750 
L 1356 3322 
L 2284 3322 
L 2284 2988 
L 1356 2988 
L 1356 331 
L 2094 331 
L 2094 0 
L 231 0 
L 231 331 
L 781 331 
L 781 2988 
L 231 2988 
L 231 3322 
L 781 3322 
L 781 3738 
Q 781 4294 1070 4578 
Q 1359 4863 1919 4863 
Q 2128 4863 2337 4825 
Q 2547 4788 2753 4709 
L 2753 4078 
z
" transform="scale(0.015625)"/>
      <path id="DejaVuSerif-2c" d="M 231 -622 
Q 525 -406 662 -114 
Q 800 178 800 594 
L 800 709 
L 1416 709 
Q 1391 175 1164 -208 
Q 938 -591 481 -872 
L 231 -622 
z
" transform="scale(0.015625)"/>
      <path id="DejaVuSerif-78" d="M 1863 2028 
L 2559 2988 
L 2113 2988 
L 2113 3322 
L 3391 3322 
L 3391 2988 
L 2950 2988 
L 2059 1759 
L 3097 331 
L 3531 331 
L 3531 0 
L 1997 0 
L 1997 331 
L 2419 331 
L 1697 1325 
L 972 331 
L 1403 331 
L 1403 0 
L 141 0 
L 141 331 
L 581 331 
L 1497 1594 
L 488 2988 
L 78 2988 
L 78 3322 
L 1563 3322 
L 1563 2988 
L 1166 2988 
L 1863 2028 
z
" transform="scale(0.015625)"/>
      <path id="DejaVuSerif-71" d="M 3359 2988 
L 3359 -997 
L 3909 -997 
L 3909 -1331 
L 2241 -1331 
L 2241 -997 
L 2784 -997 
L 2784 519 
Q 2616 206 2355 57 
Q 2094 -91 1709 -91 
Q 1097 -91 708 395 
Q 319 881 319 1663 
Q 319 2444 706 2928 
Q 1094 3413 1709 3413 
Q 2094 3413 2355 3264 
Q 2616 3116 2784 2803 
L 2784 3322 
L 3909 3322 
L 3909 2988 
L 3359 2988 
z
M 2784 1825 
Q 2784 2422 2554 2737 
Q 2325 3053 1888 3053 
Q 1444 3053 1217 2703 
Q 991 2353 991 1663 
Q 991 975 1217 622 
Q 1444 269 1888 269 
Q 2325 269 2554 583 
Q 2784 897 2784 1497 
L 2784 1825 
z
" transform="scale(0.015625)"/>
     </defs>
     <use xlink:href="#DejaVuSerif-4d"/>
     <use xlink:href="#DejaVuSerif-65" transform="translate(102.392578 0)"/>
     <use xlink:href="#DejaVuSerif-61" transform="translate(161.572266 0)"/>
     <use xlink:href="#DejaVuSerif-73" transform="translate(221.191406 0)"/>
     <use xlink:href="#DejaVuSerif-75" transform="translate(272.509766 0)"/>
     <use xlink:href="#DejaVuSerif-72" transform="translate(336.914062 0)"/>
     <use xlink:href="#DejaVuSerif-65" transform="translate(384.716797 0)"/>
     <use xlink:href="#DejaVuSerif-64" transform="translate(443.896484 0)"/>
     <use xlink:href="#DejaVuSerif-20" transform="translate(507.910156 0)"/>
     <use xlink:href="#DejaVuSerif-62" transform="translate(539.697266 0)"/>
     <use xlink:href="#DejaVuSerif-65" transform="translate(603.710938 0)"/>
     <use xlink:href="#DejaVuSerif-6e" transform="translate(662.890625 0)"/>
     <use xlink:href="#DejaVuSerif-63" transform="translate(727.294922 0)"/>
     <use xlink:href="#DejaVuSerif-68" transform="translate(783.300781 0)"/>
     <use xlink:href="#DejaVuSerif-6d" transform="translate(847.705078 0)"/>
     <use xlink:href="#DejaVuSerif-61" transform="translate(942.529297 0)"/>
     <use xlink:href="#DejaVuSerif-72" transform="translate(1002.148438 0)"/>
     <use xlink:href="#DejaVuSerif-6b" transform="translate(1049.951172 0)"/>
     <use xlink:href="#DejaVuSerif-20" transform="translate(1110.546875 0)"/>
     <use xlink:href="#DejaVuSerif-76" transform="translate(1142.333984 0)"/>
     <use xlink:href="#DejaVuSerif-61" transform="translate(1198.828125 0)"/>
     <use xlink:href="#DejaVuSerif-6c" transform="translate(1258.447266 0)"/>
     <use xlink:href="#DejaVuSerif-75" transform="translate(1290.429688 0)"/>
     <use xlink:href="#DejaVuSerif-65" transform="translate(1354.833984 0)"/>
     <use xlink:href="#DejaVuSerif-73" transform="translate(1414.013672 0)"/>
     <use xlink:href="#DejaVuSerif-20" transform="translate(1465.332031 0)"/>
     <use xlink:href="#DejaVuSerif-61" transform="translate(1497.119141 0)"/>
     <use xlink:href="#DejaVuSerif-67" transform="translate(1556.738281 0)"/>
     <use xlink:href="#DejaVuSerif-61" transform="translate(1620.751953 0)"/>
     <use xlink:href="#DejaVuSerif-69" transform="translate(1680.371094 0)"/>
     <use xlink:href="#DejaVuSerif-6e" transform="translate(1712.353516 0)"/>
     <use xlink:href="#DejaVuSerif-73" transform="translate(1776.757812 0)"/>
     <use xlink:href="#DejaVuSerif-74" transform="translate(1828.076172 0)"/>
     <use xlink:href="#DejaVuSerif-20" transform="translate(1868.261719 0)"/>
     <use xlink:href="#DejaVuSerif-62" transform="translate(1900.048828 0)"/>
     <use xlink:href="#DejaVuSerif-65" transform="translate(1964.0625 0)"/>
     <use xlink:href="#DejaVuSerif-6e" transform="translate(2023.242188 0)"/>
     <use xlink:href="#DejaVuSerif-63" transform="translate(2087.646484 0)"/>
     <use xlink:href="#DejaVuSerif-68" transform="translate(2143.652344 0)"/>
     <use xlink:href="#DejaVuSerif-6d" transform="translate(2208.056641 0)"/>
     <use xlink:href="#DejaVuSerif-61" transform="translate(2302.880859 0)"/>
     <use xlink:href="#DejaVuSerif-72" transform="translate(2362.5 0)"/>
     <use xlink:href="#DejaVuSerif-6b" transform="translate(2410.302734 0)"/>
     <use xlink:href="#DejaVuSerif-20" transform="translate(2470.898438 0)"/>
     <use xlink:href="#DejaVuSerif-69" transform="translate(2502.685547 0)"/>
     <use xlink:href="#DejaVuSerif-6e" transform="translate(2534.667969 0)"/>
     <use xlink:href="#DejaVuSerif-74" transform="translate(2599.072266 0)"/>
     <use xlink:href="#DejaVuSerif-72" transform="translate(2639.257812 0)"/>
     <use xlink:href="#DejaVuSerif-6f" transform="translate(2687.060547 0)"/>
     <use xlink:href="#DejaVuSerif-64" transform="translate(2747.265625 0)"/>
     <use xlink:href="#DejaVuSerif-75" transform="translate(2811.279297 0)"/>
     <use xlink:href="#DejaVuSerif-63" transform="translate(2875.683594 0)"/>
     <use xlink:href="#DejaVuSerif-74" transform="translate(2931.689453 0)"/>
     <use xlink:href="#DejaVuSerif-69" transform="translate(2971.875 0)"/>
     <use xlink:href="#DejaVuSerif-6f" transform="translate(3003.857422 0)"/>
     <use xlink:href="#DejaVuSerif-6e" transform="translate(3064.0625 0)"/>
     <use xlink:href="#DejaVuSerif-20" transform="translate(3128.466797 0)"/>
     <use xlink:href="#DejaVuSerif-79" transform="translate(3160.253906 0)"/>
     <use xlink:href="#DejaVuSerif-65" transform="translate(3216.748047 0)"/>
     <use xlink:href="#DejaVuSerif-61" transform="translate(3275.927734 0)"/>
     <use xlink:href="#DejaVuSerif-72" transform="translate(3335.546875 0)"/>
     <use xlink:href="#DejaVuSerif-2e" transform="translate(3372.349609 0)"/>
     <use xlink:href="#DejaVuSerif-20" transform="translate(3404.136719 0)"/>
     <use xlink:href="#DejaVuSerif-4d" transform="translate(3435.923828 0)"/>
     <use xlink:href="#DejaVuSerif-65" transform="translate(3538.316406 0)"/>
     <use xlink:href="#DejaVuSerif-74" transform="translate(3597.496094 0)"/>
     <use xlink:href="#DejaVuSerif-72" transform="translate(3637.681641 0)"/>
     <use xlink:href="#DejaVuSerif-69" transform="translate(3685.484375 0)"/>
     <use xlink:href="#DejaVuSerif-63" transform="translate(3717.466797 0)"/>
     <use xlink:href="#DejaVuSerif-20" transform="translate(3773.472656 0)"/>
     <use xlink:href="#DejaVuSerif-66" transform="translate(3805.259766 0)"/>
     <use xlink:href="#DejaVuSerif-61" transform="translate(3842.271484 0)"/>
     <use xlink:href="#DejaVuSerif-6d" transform="translate(3901.890625 0)"/>
     <use xlink:href="#DejaVuSerif-69" transform="translate(3996.714844 0)"/>
     <use xlink:href="#DejaVuSerif-6c" transform="translate(4028.697266 0)"/>
     <use xlink:href="#DejaVuSerif-69" transform="translate(4060.679688 0)"/>
     <use xlink:href="#DejaVuSerif-65" transform="translate(4092.662109 0)"/>
     <use xlink:href="#DejaVuSerif-73" transform="translate(4151.841797 0)"/>
     <use xlink:href="#DejaVuSerif-20" transform="translate(4203.160156 0)"/>
     <use xlink:href="#DejaVuSerif-64" transform="translate(4234.947266 0)"/>
     <use xlink:href="#DejaVuSerif-69" transform="translate(4298.960938 0)"/>
     <use xlink:href="#DejaVuSerif-66" transform="translate(4330.943359 0)"/>
     <use xlink:href="#DejaVuSerif-66" transform="translate(4367.955078 0)"/>
     <use xlink:href="#DejaVuSerif-65" transform="translate(4404.966797 0)"/>
     <use xlink:href="#DejaVuSerif-72" transform="translate(4464.146484 0)"/>
     <use xlink:href="#DejaVuSerif-2c" transform="translate(4500.949219 0)"/>
     <use xlink:href="#DejaVuSerif-20" transform="translate(4532.736328 0)"/>
     <use xlink:href="#DejaVuSerif-73" transform="translate(4564.523438 0)"/>
     <use xlink:href="#DejaVuSerif-6f" transform="translate(4615.841797 0)"/>
     <use xlink:href="#DejaVuSerif-20" transform="translate(4676.046875 0)"/>
     <use xlink:href="#DejaVuSerif-74" transform="translate(4707.833984 0)"/>
     <use xlink:href="#DejaVuSerif-68" transform="translate(4748.019531 0)"/>
     <use xlink:href="#DejaVuSerif-65" transform="translate(4812.423828 0)"/>
     <use xlink:href="#DejaVuSerif-20" transform="translate(4871.603516 0)"/>
     <use xlink:href="#DejaVuSerif-73" transform="translate(4903.390625 0)"/>
     <use xlink:href="#DejaVuSerif-68" transform="translate(4954.708984 0)"/>
     <use xlink:href="#DejaVuSerif-61" transform="translate(5019.113281 0)"/>
     <use xlink:href="#DejaVuSerif-72" transform="translate(5078.732422 0)"/>
     <use xlink:href="#DejaVuSerif-65" transform="translate(5126.535156 0)"/>
     <use xlink:href="#DejaVuSerif-64" transform="translate(5185.714844 0)"/>
     <use xlink:href="#DejaVuSerif-20" transform="translate(5249.728516 0)"/>
     <use xlink:href="#DejaVuSerif-61" transform="translate(5281.515625 0)"/>
     <use xlink:href="#DejaVuSerif-78" transform="translate(5341.134766 0)"/>
     <use xlink:href="#DejaVuSerif-69" transform="translate(5397.53125 0)"/>
     <use xlink:href="#DejaVuSerif-73" transform="translate(5429.513672 0)"/>
     <use xlink:href="#DejaVuSerif-20" transform="translate(5480.832031 0)"/>
     <use xlink:href="#DejaVuSerif-69" transform="translate(5512.619141 0)"/>
     <use xlink:href="#DejaVuSerif-73" transform="translate(5544.601562 0)"/>
     <use xlink:href="#DejaVuSerif-20" transform="translate(5595.919922 0)"/>
     <use xlink:href="#DejaVuSerif-66" transform="translate(5627.707031 0)"/>
     <use xlink:href="#DejaVuSerif-6f" transform="translate(5664.71875 0)"/>
     <use xlink:href="#DejaVuSerif-72" transform="translate(5724.923828 0)"/>
     <use xlink:href="#DejaVuSerif-20" transform="translate(5772.726562 0)"/>
     <use xlink:href="#DejaVuSerif-72" transform="translate(5804.513672 0)"/>
     <use xlink:href="#DejaVuSerif-65" transform="translate(5852.316406 0)"/>
     <use xlink:href="#DejaVuSerif-61" transform="translate(5911.496094 0)"/>
     <use xlink:href="#DejaVuSerif-64" transform="translate(5971.115234 0)"/>
     <use xlink:href="#DejaVuSerif-69" transform="translate(6035.128906 0)"/>
     <use xlink:href="#DejaVuSerif-6e" transform="translate(6067.111328 0)"/>
     <use xlink:href="#DejaVuSerif-67" transform="translate(6131.515625 0)"/>
     <use xlink:href="#DejaVuSerif-20" transform="translate(6195.529297 0)"/>
     <use xlink:href="#DejaVuSerif-74" transform="translate(6227.316406 0)"/>
     <use xlink:href="#DejaVuSerif-68" transform="translate(6267.501953 0)"/>
     <use xlink:href="#DejaVuSerif-65" transform="translate(6331.90625 0)"/>
     <use xlink:href="#DejaVuSerif-20" transform="translate(6391.085938 0)"/>
     <use xlink:href="#DejaVuSerif-72" transform="translate(6422.873047 0)"/>
     <use xlink:href="#DejaVuSerif-65" transform="translate(6470.675781 0)"/>
     <use xlink:href="#DejaVuSerif-63" transform="translate(6529.855469 0)"/>
     <use xlink:href="#DejaVuSerif-6f" transform="translate(6585.861328 0)"/>
     <use xlink:href="#DejaVuSerif-72" transform="translate(6646.066406 0)"/>
     <use xlink:href="#DejaVuSerif-64" transform="translate(6693.869141 0)"/>
     <use xlink:href="#DejaVuSerif-2c" transform="translate(6757.882812 0)"/>
     <use xlink:href="#DejaVuSerif-20" transform="translate(6789.669922 0)"/>
     <use xlink:href="#DejaVuSerif-6e" transform="translate(6821.457031 0)"/>
     <use xlink:href="#DejaVuSerif-6f" transform="translate(6885.861328 0)"/>
     <use xlink:href="#DejaVuSerif-74" transform="translate(6946.066406 0)"/>
     <use xlink:href="#DejaVuSerif-20" transform="translate(6986.251953 0)"/>
     <use xlink:href="#DejaVuSerif-64" transform="translate(7018.039062 0)"/>
     <use xlink:href="#DejaVuSerif-69" transform="translate(7082.052734 0)"/>
     <use xlink:href="#DejaVuSerif-72" transform="translate(7114.035156 0)"/>
     <use xlink:href="#DejaVuSerif-65" transform="translate(7161.837891 0)"/>
     <use xlink:href="#DejaVuSerif-63" transform="translate(7221.017578 0)"/>
     <use xlink:href="#DejaVuSerif-74" transform="translate(7277.023438 0)"/>
     <use xlink:href="#DejaVuSerif-20" transform="translate(7317.208984 0)"/>
     <use xlink:href="#DejaVuSerif-65" transform="translate(7348.996094 0)"/>
     <use xlink:href="#DejaVuSerif-71" transform="translate(7408.175781 0)"/>
     <use xlink:href="#DejaVuSerif-75" transform="translate(7472.189453 0)"/>
     <use xlink:href="#DejaVuSerif-69" transform="translate(7536.59375 0)"/>
     <use xlink:href="#DejaVuSerif-76" transform="translate(7568.576172 0)"/>
     <use xlink:href="#DejaVuSerif-61" transform="translate(7625.070312 0)"/>
     <use xlink:href="#DejaVuSerif-6c" transform="translate(7684.689453 0)"/>
     <use xlink:href="#DejaVuSerif-65" transform="translate(7716.671875 0)"/>
     <use xlink:href="#DejaVuSerif-6e" transform="translate(7775.851562 0)"/>
     <use xlink:href="#DejaVuSerif-63" transform="translate(7840.255859 0)"/>
     <use xlink:href="#DejaVuSerif-65" transform="translate(7896.261719 0)"/>
     <use xlink:href="#DejaVuSerif-2e" transform="translate(7955.441406 0)"/>
    </g>
   </g>
   <g id="text_17">
    <!-- Metric families: Accuracy, Label-F1, Entity-F1, G-BS-F1, Avg. -->
    <g style="fill: #6f655d" transform="translate(516.342969 30.031406) scale(0.08 -0.08)">
     <defs>
      <path id="DejaVuSerif-3a" d="M 666 325 
Q 666 500 786 622 
Q 906 744 1081 744 
Q 1256 744 1376 622 
Q 1497 500 1497 325 
Q 1497 150 1378 29 
Q 1259 -91 1081 -91 
Q 903 -91 784 29 
Q 666 150 666 325 
z
M 666 2363 
Q 666 2538 786 2658 
Q 906 2778 1081 2778 
Q 1259 2778 1378 2659 
Q 1497 2541 1497 2363 
Q 1497 2184 1378 2065 
Q 1259 1947 1081 1947 
Q 906 1947 786 2067 
Q 666 2188 666 2363 
z
" transform="scale(0.015625)"/>
      <path id="DejaVuSerif-41" d="M 1281 1691 
L 2994 1691 
L 2138 3909 
L 1281 1691 
z
M -38 0 
L -38 331 
L 372 331 
L 2034 4666 
L 2559 4666 
L 4225 331 
L 4684 331 
L 4684 0 
L 2988 0 
L 2988 331 
L 3506 331 
L 3116 1356 
L 1153 1356 
L 763 331 
L 1275 331 
L 1275 0 
L -38 0 
z
" transform="scale(0.015625)"/>
      <path id="DejaVuSerif-4c" d="M 353 0 
L 353 331 
L 947 331 
L 947 4331 
L 353 4331 
L 353 4666 
L 2175 4666 
L 2175 4331 
L 1581 4331 
L 1581 384 
L 3713 384 
L 3713 1166 
L 4097 1166 
L 4097 0 
L 353 0 
z
" transform="scale(0.015625)"/>
      <path id="DejaVuSerif-2d" d="M 281 1959 
L 1881 1959 
L 1881 1472 
L 281 1472 
L 281 1959 
z
" transform="scale(0.015625)"/>
      <path id="DejaVuSerif-31" d="M 909 0 
L 909 331 
L 1722 331 
L 1722 4213 
L 781 3603 
L 781 4013 
L 1919 4750 
L 2350 4750 
L 2350 331 
L 3163 331 
L 3163 0 
L 909 0 
z
" transform="scale(0.015625)"/>
      <path id="DejaVuSerif-45" d="M 353 0 
L 353 331 
L 947 331 
L 947 4331 
L 353 4331 
L 353 4666 
L 4109 4666 
L 4109 3628 
L 3725 3628 
L 3725 4281 
L 1581 4281 
L 1581 2719 
L 3109 2719 
L 3109 3303 
L 3494 3303 
L 3494 1753 
L 3109 1753 
L 3109 2338 
L 1581 2338 
L 1581 384 
L 3775 384 
L 3775 1038 
L 4159 1038 
L 4159 0 
L 353 0 
z
" transform="scale(0.015625)"/>
      <path id="DejaVuSerif-47" d="M 4097 3272 
Q 3988 3856 3641 4136 
Q 3294 4416 2675 4416 
Q 1869 4416 1472 3897 
Q 1075 3378 1075 2328 
Q 1075 1300 1484 772 
Q 1894 244 2688 244 
Q 3041 244 3362 331 
Q 3684 419 3975 594 
L 3975 1797 
L 3097 1797 
L 3097 2131 
L 4609 2131 
L 4609 391 
Q 4194 150 3714 29 
Q 3234 -91 2688 -91 
Q 1631 -91 995 570 
Q 359 1231 359 2328 
Q 359 3434 996 4092 
Q 1634 4750 2713 4750 
Q 3113 4750 3539 4658 
Q 3966 4566 4447 4378 
L 4447 3272 
L 4097 3272 
z
" transform="scale(0.015625)"/>
      <path id="DejaVuSerif-53" d="M 594 225 
L 594 1288 
L 953 1284 
Q 969 753 1261 498 
Q 1553 244 2150 244 
Q 2706 244 2998 464 
Q 3291 684 3291 1106 
Q 3291 1444 3114 1625 
Q 2938 1806 2369 1978 
L 1753 2163 
Q 1084 2366 811 2669 
Q 538 2972 538 3500 
Q 538 4094 959 4422 
Q 1381 4750 2144 4750 
Q 2469 4750 2856 4679 
Q 3244 4609 3681 4475 
L 3681 3481 
L 3328 3481 
Q 3275 3975 2998 4195 
Q 2722 4416 2156 4416 
Q 1663 4416 1405 4214 
Q 1147 4013 1147 3628 
Q 1147 3294 1340 3103 
Q 1534 2913 2163 2725 
L 2741 2553 
Q 3375 2363 3645 2067 
Q 3916 1772 3916 1275 
Q 3916 597 3481 253 
Q 3047 -91 2188 -91 
Q 1803 -91 1404 -12 
Q 1006 66 594 225 
z
" transform="scale(0.015625)"/>
     </defs>
     <use xlink:href="#DejaVuSerif-4d"/>
     <use xlink:href="#DejaVuSerif-65" transform="translate(102.392578 0)"/>
     <use xlink:href="#DejaVuSerif-74" transform="translate(161.572266 0)"/>
     <use xlink:href="#DejaVuSerif-72" transform="translate(201.757812 0)"/>
     <use xlink:href="#DejaVuSerif-69" transform="translate(249.560547 0)"/>
     <use xlink:href="#DejaVuSerif-63" transform="translate(281.542969 0)"/>
     <use xlink:href="#DejaVuSerif-20" transform="translate(337.548828 0)"/>
     <use xlink:href="#DejaVuSerif-66" transform="translate(369.335938 0)"/>
     <use xlink:href="#DejaVuSerif-61" transform="translate(406.347656 0)"/>
     <use xlink:href="#DejaVuSerif-6d" transform="translate(465.966797 0)"/>
     <use xlink:href="#DejaVuSerif-69" transform="translate(560.791016 0)"/>
     <use xlink:href="#DejaVuSerif-6c" transform="translate(592.773438 0)"/>
     <use xlink:href="#DejaVuSerif-69" transform="translate(624.755859 0)"/>
     <use xlink:href="#DejaVuSerif-65" transform="translate(656.738281 0)"/>
     <use xlink:href="#DejaVuSerif-73" transform="translate(715.917969 0)"/>
     <use xlink:href="#DejaVuSerif-3a" transform="translate(767.236328 0)"/>
     <use xlink:href="#DejaVuSerif-20" transform="translate(800.927734 0)"/>
     <use xlink:href="#DejaVuSerif-41" transform="translate(832.714844 0)"/>
     <use xlink:href="#DejaVuSerif-63" transform="translate(904.931641 0)"/>
     <use xlink:href="#DejaVuSerif-63" transform="translate(960.9375 0)"/>
     <use xlink:href="#DejaVuSerif-75" transform="translate(1016.943359 0)"/>
     <use xlink:href="#DejaVuSerif-72" transform="translate(1081.347656 0)"/>
     <use xlink:href="#DejaVuSerif-61" transform="translate(1129.150391 0)"/>
     <use xlink:href="#DejaVuSerif-63" transform="translate(1188.769531 0)"/>
     <use xlink:href="#DejaVuSerif-79" transform="translate(1244.775391 0)"/>
     <use xlink:href="#DejaVuSerif-2c" transform="translate(1288.019531 0)"/>
     <use xlink:href="#DejaVuSerif-20" transform="translate(1319.806641 0)"/>
     <use xlink:href="#DejaVuSerif-4c" transform="translate(1351.59375 0)"/>
     <use xlink:href="#DejaVuSerif-61" transform="translate(1418 0)"/>
     <use xlink:href="#DejaVuSerif-62" transform="translate(1477.619141 0)"/>
     <use xlink:href="#DejaVuSerif-65" transform="translate(1541.632812 0)"/>
     <use xlink:href="#DejaVuSerif-6c" transform="translate(1600.8125 0)"/>
     <use xlink:href="#DejaVuSerif-2d" transform="translate(1632.794922 0)"/>
     <use xlink:href="#DejaVuSerif-46" transform="translate(1666.583984 0)"/>
     <use xlink:href="#DejaVuSerif-31" transform="translate(1735.96875 0)"/>
     <use xlink:href="#DejaVuSerif-2c" transform="translate(1799.591797 0)"/>
     <use xlink:href="#DejaVuSerif-20" transform="translate(1831.378906 0)"/>
     <use xlink:href="#DejaVuSerif-45" transform="translate(1863.166016 0)"/>
     <use xlink:href="#DejaVuSerif-6e" transform="translate(1936.164062 0)"/>
     <use xlink:href="#DejaVuSerif-74" transform="translate(2000.568359 0)"/>
     <use xlink:href="#DejaVuSerif-69" transform="translate(2040.753906 0)"/>
     <use xlink:href="#DejaVuSerif-74" transform="translate(2072.736328 0)"/>
     <use xlink:href="#DejaVuSerif-79" transform="translate(2112.921875 0)"/>
     <use xlink:href="#DejaVuSerif-2d" transform="translate(2169.416016 0)"/>
     <use xlink:href="#DejaVuSerif-46" transform="translate(2203.205078 0)"/>
     <use xlink:href="#DejaVuSerif-31" transform="translate(2272.589844 0)"/>
     <use xlink:href="#DejaVuSerif-2c" transform="translate(2336.212891 0)"/>
     <use xlink:href="#DejaVuSerif-20" transform="translate(2368 0)"/>
     <use xlink:href="#DejaVuSerif-47" transform="translate(2399.787109 0)"/>
     <use xlink:href="#DejaVuSerif-2d" transform="translate(2481.544922 0)"/>
     <use xlink:href="#DejaVuSerif-42" transform="translate(2515.333984 0)"/>
     <use xlink:href="#DejaVuSerif-53" transform="translate(2588.820312 0)"/>
     <use xlink:href="#DejaVuSerif-2d" transform="translate(2660.951172 0)"/>
     <use xlink:href="#DejaVuSerif-46" transform="translate(2694.740234 0)"/>
     <use xlink:href="#DejaVuSerif-31" transform="translate(2764.125 0)"/>
     <use xlink:href="#DejaVuSerif-2c" transform="translate(2827.748047 0)"/>
     <use xlink:href="#DejaVuSerif-20" transform="translate(2859.535156 0)"/>
     <use xlink:href="#DejaVuSerif-41" transform="translate(2891.322266 0)"/>
     <use xlink:href="#DejaVuSerif-76" transform="translate(2959.539062 0)"/>
     <use xlink:href="#DejaVuSerif-67" transform="translate(3016.033203 0)"/>
     <use xlink:href="#DejaVuSerif-2e" transform="translate(3080.046875 0)"/>
    </g>
   </g>
   <g id="PathCollection_21">
    <defs>
     <path id="mfec56f57bb" d="M 0 1.732051 
C 0.459345 1.732051 0.899939 1.549551 1.224745 1.224745 
C 1.549551 0.899939 1.732051 0.459345 1.732051 0 
C 1.732051 -0.459345 1.549551 -0.899939 1.224745 -1.224745 
C 0.899939 -1.549551 0.459345 -1.732051 0 -1.732051 
C -0.459345 -1.732051 -0.899939 -1.549551 -1.224745 -1.224745 
C -1.549551 -0.899939 -1.732051 -0.459345 -1.732051 0 
C -1.732051 0.459345 -1.549551 0.899939 -1.224745 1.224745 
C -0.899939 1.549551 -0.459345 1.732051 0 1.732051 
z
" style="stroke: #6f3f2b"/>
    </defs>
    <g clip-path="url(#pb3b9016b6d)">
     <use xlink:href="#mfec56f57bb" x="80.087884" y="86.186121" style="fill: #6f3f2b; stroke: #6f3f2b"/>
    </g>
   </g>
   <g id="PathCollection_22">
    <g clip-path="url(#pb3b9016b6d)">
     <use xlink:href="#mfec56f57bb" x="308.290969" y="123.947414" style="fill: #6f3f2b; stroke: #6f3f2b"/>
    </g>
   </g>
   <g id="PathCollection_23">
    <g clip-path="url(#pb3b9016b6d)">
     <use xlink:href="#mfec56f57bb" x="373.236494" y="163.758878" style="fill: #6f3f2b; stroke: #6f3f2b"/>
    </g>
   </g>
   <g id="PathCollection_24">
    <g clip-path="url(#pb3b9016b6d)">
     <use xlink:href="#mfec56f57bb" x="422.690426" y="87.354242" style="fill: #6f3f2b; stroke: #6f3f2b"/>
    </g>
   </g>
   <g id="PathCollection_25">
    <g clip-path="url(#pb3b9016b6d)">
     <use xlink:href="#mfec56f57bb" x="516.831647" y="118.941182" style="fill: #6f3f2b; stroke: #6f3f2b"/>
    </g>
   </g>
   <g id="PathCollection_26">
    <g clip-path="url(#pb3b9016b6d)">
     <use xlink:href="#mfec56f57bb" x="611.568698" y="163.878074" style="fill: #6f3f2b; stroke: #6f3f2b"/>
    </g>
   </g>
   <g id="PathCollection_27">
    <g clip-path="url(#pb3b9016b6d)">
     <use xlink:href="#mfec56f57bb" x="646.126867" y="147.667418" style="fill: #6f3f2b; stroke: #6f3f2b"/>
    </g>
   </g>
   <g id="PathCollection_28">
    <g clip-path="url(#pb3b9016b6d)">
     <use xlink:href="#mfec56f57bb" x="671.151748" y="200.590442" style="fill: #6f3f2b; stroke: #6f3f2b"/>
    </g>
   </g>
   <g id="PathCollection_29">
    <g clip-path="url(#pb3b9016b6d)">
     <use xlink:href="#mfec56f57bb" x="738.480596" y="262.33397" style="fill: #6f3f2b; stroke: #6f3f2b"/>
    </g>
   </g>
   <g id="PathCollection_30">
    <g clip-path="url(#pb3b9016b6d)">
     <use xlink:href="#mfec56f57bb" x="746.226392" y="290.702618" style="fill: #6f3f2b; stroke: #6f3f2b"/>
    </g>
   </g>
   <g id="text_18">
    <!-- BioASQ -->
    <g style="fill: #171310" transform="translate(86.087884 66.40337) scale(0.093 -0.093)">
     <defs>
      <path id="DejaVuSerif-51" d="M 2700 -91 
Q 1628 -91 993 567 
Q 359 1225 359 2328 
Q 359 2894 529 3339 
Q 700 3784 1050 4134 
Q 1356 4441 1750 4595 
Q 2144 4750 2625 4750 
Q 3641 4750 4266 4084 
Q 4891 3419 4891 2328 
Q 4891 1403 4422 773 
Q 3953 144 3128 -38 
Q 3297 -247 3539 -347 
Q 3781 -447 4122 -447 
L 4219 -447 
L 4219 -1025 
Q 3691 -1000 3314 -767 
Q 2938 -534 2700 -91 
z
M 2625 244 
Q 3391 244 3781 770 
Q 4172 1297 4172 2328 
Q 4172 3363 3781 3889 
Q 3391 4416 2625 4416 
Q 1856 4416 1465 3889 
Q 1075 3363 1075 2328 
Q 1075 1297 1465 770 
Q 1856 244 2625 244 
z
" transform="scale(0.015625)"/>
     </defs>
     <use xlink:href="#DejaVuSerif-42"/>
     <use xlink:href="#DejaVuSerif-69" transform="translate(73.486328 0)"/>
     <use xlink:href="#DejaVuSerif-6f" transform="translate(105.46875 0)"/>
     <use xlink:href="#DejaVuSerif-41" transform="translate(165.673828 0)"/>
     <use xlink:href="#DejaVuSerif-53" transform="translate(237.890625 0)"/>
     <use xlink:href="#DejaVuSerif-51" transform="translate(306.396484 0)"/>
    </g>
    <!-- 86.2 -->
    <g style="fill: #171310" transform="translate(86.087884 76.252012) scale(0.093 -0.093)">
     <defs>
      <path id="DejaVuSerif-38" d="M 2981 1275 
Q 2981 1775 2732 2051 
Q 2484 2328 2034 2328 
Q 1584 2328 1336 2051 
Q 1088 1775 1088 1275 
Q 1088 772 1336 495 
Q 1584 219 2034 219 
Q 2484 219 2732 495 
Q 2981 772 2981 1275 
z
M 2853 3541 
Q 2853 3966 2637 4203 
Q 2422 4441 2034 4441 
Q 1650 4441 1433 4203 
Q 1216 3966 1216 3541 
Q 1216 3113 1433 2875 
Q 1650 2638 2034 2638 
Q 2422 2638 2637 2875 
Q 2853 3113 2853 3541 
z
M 2516 2484 
Q 3047 2413 3344 2092 
Q 3641 1772 3641 1275 
Q 3641 619 3225 264 
Q 2809 -91 2034 -91 
Q 1263 -91 845 264 
Q 428 619 428 1275 
Q 428 1772 725 2092 
Q 1022 2413 1556 2484 
Q 1084 2569 832 2842 
Q 581 3116 581 3541 
Q 581 4103 968 4426 
Q 1356 4750 2034 4750 
Q 2713 4750 3100 4426 
Q 3488 4103 3488 3541 
Q 3488 3116 3236 2842 
Q 2984 2569 2516 2484 
z
" transform="scale(0.015625)"/>
      <path id="DejaVuSerif-36" d="M 2094 219 
Q 2534 219 2771 542 
Q 3009 866 3009 1472 
Q 3009 2078 2771 2401 
Q 2534 2725 2094 2725 
Q 1647 2725 1412 2412 
Q 1178 2100 1178 1509 
Q 1178 888 1415 553 
Q 1653 219 2094 219 
z
M 1075 2569 
Q 1288 2803 1556 2918 
Q 1825 3034 2163 3034 
Q 2859 3034 3264 2615 
Q 3669 2197 3669 1472 
Q 3669 763 3233 336 
Q 2797 -91 2069 -91 
Q 1278 -91 853 498 
Q 428 1088 428 2181 
Q 428 3406 931 4078 
Q 1434 4750 2350 4750 
Q 2597 4750 2869 4703 
Q 3141 4656 3425 4563 
L 3425 3794 
L 3072 3794 
Q 3034 4109 2831 4275 
Q 2628 4441 2284 4441 
Q 1678 4441 1381 3981 
Q 1084 3522 1075 2569 
z
" transform="scale(0.015625)"/>
      <path id="DejaVuSerif-32" d="M 819 3553 
L 469 3553 
L 469 4384 
Q 803 4563 1142 4656 
Q 1481 4750 1806 4750 
Q 2534 4750 2956 4397 
Q 3378 4044 3378 3438 
Q 3378 2753 2422 1800 
Q 2347 1728 2309 1691 
L 1131 513 
L 3078 513 
L 3078 1088 
L 3444 1088 
L 3444 0 
L 434 0 
L 434 341 
L 1850 1753 
Q 2319 2222 2519 2614 
Q 2719 3006 2719 3438 
Q 2719 3909 2473 4175 
Q 2228 4441 1797 4441 
Q 1350 4441 1106 4219 
Q 863 3997 819 3553 
z
" transform="scale(0.015625)"/>
     </defs>
     <use xlink:href="#DejaVuSerif-38"/>
     <use xlink:href="#DejaVuSerif-36" transform="translate(63.623047 0)"/>
     <use xlink:href="#DejaVuSerif-2e" transform="translate(127.246094 0)"/>
     <use xlink:href="#DejaVuSerif-32" transform="translate(159.033203 0)"/>
    </g>
   </g>
   <g id="text_19">
    <!-- SciERC -->
    <g style="fill: #171310" transform="translate(314.290969 104.164663) scale(0.093 -0.093)">
     <defs>
      <path id="DejaVuSerif-43" d="M 4513 1234 
Q 4306 581 3820 245 
Q 3334 -91 2591 -91 
Q 2134 -91 1743 65 
Q 1353 222 1050 525 
Q 700 875 529 1320 
Q 359 1766 359 2328 
Q 359 3416 987 4083 
Q 1616 4750 2644 4750 
Q 3025 4750 3456 4650 
Q 3888 4550 4384 4347 
L 4384 3272 
L 4031 3272 
Q 3916 3859 3567 4137 
Q 3219 4416 2591 4416 
Q 1844 4416 1459 3886 
Q 1075 3356 1075 2328 
Q 1075 1303 1459 773 
Q 1844 244 2591 244 
Q 3113 244 3450 492 
Q 3788 741 3938 1234 
L 4513 1234 
z
" transform="scale(0.015625)"/>
     </defs>
     <use xlink:href="#DejaVuSerif-53"/>
     <use xlink:href="#DejaVuSerif-63" transform="translate(68.505859 0)"/>
     <use xlink:href="#DejaVuSerif-69" transform="translate(124.511719 0)"/>
     <use xlink:href="#DejaVuSerif-45" transform="translate(156.494141 0)"/>
     <use xlink:href="#DejaVuSerif-52" transform="translate(229.492188 0)"/>
     <use xlink:href="#DejaVuSerif-43" transform="translate(304.785156 0)"/>
    </g>
    <!-- 70.3 -->
    <g style="fill: #171310" transform="translate(314.290969 114.013305) scale(0.093 -0.093)">
     <defs>
      <path id="DejaVuSerif-37" d="M 3609 4347 
L 1784 0 
L 1319 0 
L 3059 4153 
L 903 4153 
L 903 3578 
L 538 3578 
L 538 4666 
L 3609 4666 
L 3609 4347 
z
" transform="scale(0.015625)"/>
      <path id="DejaVuSerif-30" d="M 2034 219 
Q 2513 219 2750 744 
Q 2988 1269 2988 2328 
Q 2988 3391 2750 3916 
Q 2513 4441 2034 4441 
Q 1556 4441 1318 3916 
Q 1081 3391 1081 2328 
Q 1081 1269 1318 744 
Q 1556 219 2034 219 
z
M 2034 -91 
Q 1275 -91 848 546 
Q 422 1184 422 2328 
Q 422 3475 848 4112 
Q 1275 4750 2034 4750 
Q 2797 4750 3222 4112 
Q 3647 3475 3647 2328 
Q 3647 1184 3222 546 
Q 2797 -91 2034 -91 
z
" transform="scale(0.015625)"/>
      <path id="DejaVuSerif-33" d="M 622 4469 
Q 988 4606 1323 4678 
Q 1659 4750 1953 4750 
Q 2638 4750 3022 4454 
Q 3406 4159 3406 3634 
Q 3406 3213 3140 2930 
Q 2875 2647 2388 2547 
Q 2963 2466 3280 2130 
Q 3597 1794 3597 1259 
Q 3597 606 3158 257 
Q 2719 -91 1894 -91 
Q 1528 -91 1179 -12 
Q 831 66 488 225 
L 488 1131 
L 838 1131 
Q 869 681 1141 450 
Q 1413 219 1906 219 
Q 2384 219 2661 495 
Q 2938 772 2938 1253 
Q 2938 1803 2653 2086 
Q 2369 2369 1819 2369 
L 1522 2369 
L 1522 2688 
L 1678 2688 
Q 2225 2688 2498 2914 
Q 2772 3141 2772 3597 
Q 2772 4006 2547 4223 
Q 2322 4441 1900 4441 
Q 1478 4441 1245 4241 
Q 1013 4041 972 3647 
L 622 3647 
L 622 4469 
z
" transform="scale(0.015625)"/>
     </defs>
     <use xlink:href="#DejaVuSerif-37"/>
     <use xlink:href="#DejaVuSerif-30" transform="translate(63.623047 0)"/>
     <use xlink:href="#DejaVuSerif-2e" transform="translate(127.246094 0)"/>
     <use xlink:href="#DejaVuSerif-33" transform="translate(159.033203 0)"/>
    </g>
   </g>
   <g id="text_20">
    <!-- PubMedQA -->
    <g style="fill: #171310" transform="translate(375.236494 182.825425) scale(0.093 -0.093)">
     <defs>
      <path id="DejaVuSerif-50" d="M 1581 2375 
L 2406 2375 
Q 2872 2375 3115 2626 
Q 3359 2878 3359 3353 
Q 3359 3831 3115 4081 
Q 2872 4331 2406 4331 
L 1581 4331 
L 1581 2375 
z
M 353 0 
L 353 331 
L 947 331 
L 947 4331 
L 353 4331 
L 353 4666 
L 2559 4666 
Q 3259 4666 3668 4311 
Q 4078 3956 4078 3353 
Q 4078 2753 3668 2397 
Q 3259 2041 2559 2041 
L 1581 2041 
L 1581 331 
L 2303 331 
L 2303 0 
L 353 0 
z
" transform="scale(0.015625)"/>
     </defs>
     <use xlink:href="#DejaVuSerif-50"/>
     <use xlink:href="#DejaVuSerif-75" transform="translate(67.285156 0)"/>
     <use xlink:href="#DejaVuSerif-62" transform="translate(131.689453 0)"/>
     <use xlink:href="#DejaVuSerif-4d" transform="translate(195.703125 0)"/>
     <use xlink:href="#DejaVuSerif-65" transform="translate(298.095703 0)"/>
     <use xlink:href="#DejaVuSerif-64" transform="translate(357.275391 0)"/>
     <use xlink:href="#DejaVuSerif-51" transform="translate(421.289062 0)"/>
     <use xlink:href="#DejaVuSerif-41" transform="translate(503.271484 0)"/>
    </g>
    <!-- 53.6 -->
    <g style="fill: #171310" transform="translate(375.236494 192.674067) scale(0.093 -0.093)">
     <defs>
      <path id="DejaVuSerif-35" d="M 3219 4666 
L 3219 4153 
L 1081 4153 
L 1081 2816 
Q 1244 2928 1461 2984 
Q 1678 3041 1947 3041 
Q 2703 3041 3140 2622 
Q 3578 2203 3578 1478 
Q 3578 738 3136 323 
Q 2694 -91 1894 -91 
Q 1572 -91 1234 -12 
Q 897 66 544 225 
L 544 1131 
L 897 1131 
Q 925 688 1179 453 
Q 1434 219 1894 219 
Q 2388 219 2653 544 
Q 2919 869 2919 1478 
Q 2919 2084 2655 2407 
Q 2391 2731 1894 2731 
Q 1613 2731 1398 2631 
Q 1184 2531 1019 2322 
L 750 2322 
L 750 4666 
L 3219 4666 
z
" transform="scale(0.015625)"/>
     </defs>
     <use xlink:href="#DejaVuSerif-35"/>
     <use xlink:href="#DejaVuSerif-33" transform="translate(63.623047 0)"/>
     <use xlink:href="#DejaVuSerif-2e" transform="translate(127.246094 0)"/>
     <use xlink:href="#DejaVuSerif-36" transform="translate(159.033203 0)"/>
    </g>
   </g>
   <g id="text_21">
    <!-- MMLU -->
    <g style="fill: #171310" transform="translate(428.690426 67.571491) scale(0.093 -0.093)">
     <defs>
      <path id="DejaVuSerif-55" d="M 897 4331 
L 300 4331 
L 300 4666 
L 2125 4666 
L 2125 4331 
L 1528 4331 
L 1528 1919 
Q 1528 1025 1820 672 
Q 2113 319 2828 319 
Q 3544 319 3836 672 
Q 4128 1025 4128 1919 
L 4128 4331 
L 3531 4331 
L 3531 4666 
L 5106 4666 
L 5106 4331 
L 4513 4331 
L 4513 1856 
Q 4513 791 4103 350 
Q 3694 -91 2713 -91 
Q 1731 -91 1314 353 
Q 897 797 897 1856 
L 897 4331 
z
" transform="scale(0.015625)"/>
     </defs>
     <use xlink:href="#DejaVuSerif-4d"/>
     <use xlink:href="#DejaVuSerif-4d" transform="translate(102.392578 0)"/>
     <use xlink:href="#DejaVuSerif-4c" transform="translate(204.785156 0)"/>
     <use xlink:href="#DejaVuSerif-55" transform="translate(265.691406 0)"/>
    </g>
    <!-- 85.7 -->
    <g style="fill: #171310" transform="translate(428.690426 77.420133) scale(0.093 -0.093)">
     <use xlink:href="#DejaVuSerif-38"/>
     <use xlink:href="#DejaVuSerif-35" transform="translate(63.623047 0)"/>
     <use xlink:href="#DejaVuSerif-2e" transform="translate(127.246094 0)"/>
     <use xlink:href="#DejaVuSerif-37" transform="translate(159.033203 0)"/>
    </g>
   </g>
   <g id="text_22">
    <!-- BioRED -->
    <g style="fill: #171310" transform="translate(522.831647 138.007729) scale(0.093 -0.093)">
     <defs>
      <path id="DejaVuSerif-44" d="M 1581 331 
L 2163 331 
Q 3072 331 3558 850 
Q 4044 1369 4044 2338 
Q 4044 3306 3559 3818 
Q 3075 4331 2163 4331 
L 1581 4331 
L 1581 331 
z
M 353 0 
L 353 331 
L 947 331 
L 947 4331 
L 353 4331 
L 353 4666 
L 2209 4666 
Q 3416 4666 4089 4050 
Q 4763 3434 4763 2338 
Q 4763 1238 4088 619 
Q 3413 0 2209 0 
L 353 0 
z
" transform="scale(0.015625)"/>
     </defs>
     <use xlink:href="#DejaVuSerif-42"/>
     <use xlink:href="#DejaVuSerif-69" transform="translate(73.486328 0)"/>
     <use xlink:href="#DejaVuSerif-6f" transform="translate(105.46875 0)"/>
     <use xlink:href="#DejaVuSerif-52" transform="translate(165.673828 0)"/>
     <use xlink:href="#DejaVuSerif-45" transform="translate(240.966797 0)"/>
     <use xlink:href="#DejaVuSerif-44" transform="translate(313.964844 0)"/>
    </g>
    <!-- 72.5 -->
    <g style="fill: #171310" transform="translate(522.831647 147.856371) scale(0.093 -0.093)">
     <use xlink:href="#DejaVuSerif-37"/>
     <use xlink:href="#DejaVuSerif-32" transform="translate(63.623047 0)"/>
     <use xlink:href="#DejaVuSerif-2e" transform="translate(127.246094 0)"/>
     <use xlink:href="#DejaVuSerif-35" transform="translate(159.033203 0)"/>
    </g>
   </g>
   <g id="text_23">
    <!-- GPQA -->
    <g style="fill: #171310" transform="translate(617.568698 144.095323) scale(0.093 -0.093)">
     <use xlink:href="#DejaVuSerif-47"/>
     <use xlink:href="#DejaVuSerif-50" transform="translate(79.882812 0)"/>
     <use xlink:href="#DejaVuSerif-51" transform="translate(147.167969 0)"/>
     <use xlink:href="#DejaVuSerif-41" transform="translate(229.150391 0)"/>
    </g>
    <!-- 53.6 -->
    <g style="fill: #171310" transform="translate(617.568698 153.943965) scale(0.093 -0.093)">
     <use xlink:href="#DejaVuSerif-35"/>
     <use xlink:href="#DejaVuSerif-33" transform="translate(63.623047 0)"/>
     <use xlink:href="#DejaVuSerif-2e" transform="translate(127.246094 0)"/>
     <use xlink:href="#DejaVuSerif-36" transform="translate(159.033203 0)"/>
    </g>
   </g>
   <g id="text_24">
    <!-- SciRIFF -->
    <g style="fill: #171310" transform="translate(652.126867 166.733965) scale(0.093 -0.093)">
     <defs>
      <path id="DejaVuSerif-49" d="M 1581 331 
L 2175 331 
L 2175 0 
L 353 0 
L 353 331 
L 947 331 
L 947 4331 
L 353 4331 
L 353 4666 
L 2175 4666 
L 2175 4331 
L 1581 4331 
L 1581 331 
z
" transform="scale(0.015625)"/>
     </defs>
     <use xlink:href="#DejaVuSerif-53"/>
     <use xlink:href="#DejaVuSerif-63" transform="translate(68.505859 0)"/>
     <use xlink:href="#DejaVuSerif-69" transform="translate(124.511719 0)"/>
     <use xlink:href="#DejaVuSerif-52" transform="translate(156.494141 0)"/>
     <use xlink:href="#DejaVuSerif-49" transform="translate(231.787109 0)"/>
     <use xlink:href="#DejaVuSerif-46" transform="translate(271.289062 0)"/>
     <use xlink:href="#DejaVuSerif-46" transform="translate(340.673828 0)"/>
    </g>
    <!-- 60.4 -->
    <g style="fill: #171310" transform="translate(652.126867 176.582607) scale(0.093 -0.093)">
     <defs>
      <path id="DejaVuSerif-34" d="M 2234 1581 
L 2234 4063 
L 641 1581 
L 2234 1581 
z
M 3609 0 
L 1484 0 
L 1484 331 
L 2234 331 
L 2234 1247 
L 197 1247 
L 197 1588 
L 2241 4750 
L 2859 4750 
L 2859 1581 
L 3750 1581 
L 3750 1247 
L 2859 1247 
L 2859 331 
L 3609 331 
L 3609 0 
z
" transform="scale(0.015625)"/>
     </defs>
     <use xlink:href="#DejaVuSerif-36"/>
     <use xlink:href="#DejaVuSerif-30" transform="translate(63.623047 0)"/>
     <use xlink:href="#DejaVuSerif-2e" transform="translate(127.246094 0)"/>
     <use xlink:href="#DejaVuSerif-34" transform="translate(159.033203 0)"/>
    </g>
   </g>
   <g id="text_25">
    <!-- SimpleQA -->
    <g style="fill: #171310" transform="translate(677.151748 180.807691) scale(0.093 -0.093)">
     <use xlink:href="#DejaVuSerif-53"/>
     <use xlink:href="#DejaVuSerif-69" transform="translate(68.505859 0)"/>
     <use xlink:href="#DejaVuSerif-6d" transform="translate(100.488281 0)"/>
     <use xlink:href="#DejaVuSerif-70" transform="translate(195.3125 0)"/>
     <use xlink:href="#DejaVuSerif-6c" transform="translate(259.326172 0)"/>
     <use xlink:href="#DejaVuSerif-65" transform="translate(291.308594 0)"/>
     <use xlink:href="#DejaVuSerif-51" transform="translate(350.488281 0)"/>
     <use xlink:href="#DejaVuSerif-41" transform="translate(432.470703 0)"/>
    </g>
    <!-- 38.2 -->
    <g style="fill: #171310" transform="translate(677.151748 190.656333) scale(0.093 -0.093)">
     <use xlink:href="#DejaVuSerif-33"/>
     <use xlink:href="#DejaVuSerif-38" transform="translate(63.623047 0)"/>
     <use xlink:href="#DejaVuSerif-2e" transform="translate(127.246094 0)"/>
     <use xlink:href="#DejaVuSerif-32" transform="translate(159.033203 0)"/>
    </g>
   </g>
   <g id="text_26">
    <!-- Frontier O -->
    <g style="fill: #171310" transform="translate(744.480596 242.551219) scale(0.093 -0.093)">
     <defs>
      <path id="DejaVuSerif-4f" d="M 2625 244 
Q 3391 244 3781 770 
Q 4172 1297 4172 2328 
Q 4172 3363 3781 3889 
Q 3391 4416 2625 4416 
Q 1856 4416 1465 3889 
Q 1075 3363 1075 2328 
Q 1075 1297 1465 770 
Q 1856 244 2625 244 
z
M 2625 -91 
Q 2150 -91 1751 65 
Q 1353 222 1050 525 
Q 700 875 529 1319 
Q 359 1763 359 2328 
Q 359 2894 529 3339 
Q 700 3784 1050 4134 
Q 1356 4441 1750 4595 
Q 2144 4750 2625 4750 
Q 3641 4750 4266 4084 
Q 4891 3419 4891 2328 
Q 4891 1769 4719 1320 
Q 4547 872 4197 525 
Q 3891 219 3497 64 
Q 3103 -91 2625 -91 
z
" transform="scale(0.015625)"/>
     </defs>
     <use xlink:href="#DejaVuSerif-46"/>
     <use xlink:href="#DejaVuSerif-72" transform="translate(69.384766 0)"/>
     <use xlink:href="#DejaVuSerif-6f" transform="translate(117.1875 0)"/>
     <use xlink:href="#DejaVuSerif-6e" transform="translate(177.392578 0)"/>
     <use xlink:href="#DejaVuSerif-74" transform="translate(241.796875 0)"/>
     <use xlink:href="#DejaVuSerif-69" transform="translate(281.982422 0)"/>
     <use xlink:href="#DejaVuSerif-65" transform="translate(313.964844 0)"/>
     <use xlink:href="#DejaVuSerif-72" transform="translate(373.144531 0)"/>
     <use xlink:href="#DejaVuSerif-20" transform="translate(420.947266 0)"/>
     <use xlink:href="#DejaVuSerif-4f" transform="translate(452.734375 0)"/>
    </g>
    <!-- 12.3 -->
    <g style="fill: #171310" transform="translate(744.480596 252.399861) scale(0.093 -0.093)">
     <use xlink:href="#DejaVuSerif-31"/>
     <use xlink:href="#DejaVuSerif-32" transform="translate(63.623047 0)"/>
     <use xlink:href="#DejaVuSerif-2e" transform="translate(127.246094 0)"/>
     <use xlink:href="#DejaVuSerif-33" transform="translate(159.033203 0)"/>
    </g>
   </g>
   <g id="text_27">
    <!-- Frontier R -->
    <g style="fill: #171310" transform="translate(752.226392 307.769165) scale(0.093 -0.093)">
     <use xlink:href="#DejaVuSerif-46"/>
     <use xlink:href="#DejaVuSerif-72" transform="translate(69.384766 0)"/>
     <use xlink:href="#DejaVuSerif-6f" transform="translate(117.1875 0)"/>
     <use xlink:href="#DejaVuSerif-6e" transform="translate(177.392578 0)"/>
     <use xlink:href="#DejaVuSerif-74" transform="translate(241.796875 0)"/>
     <use xlink:href="#DejaVuSerif-69" transform="translate(281.982422 0)"/>
     <use xlink:href="#DejaVuSerif-65" transform="translate(313.964844 0)"/>
     <use xlink:href="#DejaVuSerif-72" transform="translate(373.144531 0)"/>
     <use xlink:href="#DejaVuSerif-20" transform="translate(420.947266 0)"/>
     <use xlink:href="#DejaVuSerif-52" transform="translate(452.734375 0)"/>
    </g>
    <!-- 0.4 -->
    <g style="fill: #171310" transform="translate(752.226392 317.617807) scale(0.093 -0.093)">
     <use xlink:href="#DejaVuSerif-30"/>
     <use xlink:href="#DejaVuSerif-2e" transform="translate(63.623047 0)"/>
     <use xlink:href="#DejaVuSerif-34" transform="translate(95.410156 0)"/>
    </g>
   </g>
   <g id="legend_1">
    <g id="line2d_20">
     <path d="M 658.622406 64.753729 
L 668.582406 64.753729 
L 678.542406 64.753729 
" style="fill: none; stroke-dasharray: 1.65,2.86; stroke-dashoffset: 0; stroke: #b54b4b; stroke-width: 1.1"/>
    </g>
    <g id="text_28">
     <!-- Model launch date -->
     <g style="fill: #6f655d" transform="translate(683.522406 67.658729) scale(0.083 -0.083)">
      <use xlink:href="#DejaVuSerif-4d"/>
      <use xlink:href="#DejaVuSerif-6f" transform="translate(102.392578 0)"/>
      <use xlink:href="#DejaVuSerif-64" transform="translate(162.597656 0)"/>
      <use xlink:href="#DejaVuSerif-65" transform="translate(226.611328 0)"/>
      <use xlink:href="#DejaVuSerif-6c" transform="translate(285.791016 0)"/>
      <use xlink:href="#DejaVuSerif-20" transform="translate(317.773438 0)"/>
      <use xlink:href="#DejaVuSerif-6c" transform="translate(349.560547 0)"/>
      <use xlink:href="#DejaVuSerif-61" transform="translate(381.542969 0)"/>
      <use xlink:href="#DejaVuSerif-75" transform="translate(441.162109 0)"/>
      <use xlink:href="#DejaVuSerif-6e" transform="translate(505.566406 0)"/>
      <use xlink:href="#DejaVuSerif-63" transform="translate(569.970703 0)"/>
      <use xlink:href="#DejaVuSerif-68" transform="translate(625.976562 0)"/>
      <use xlink:href="#DejaVuSerif-20" transform="translate(690.380859 0)"/>
      <use xlink:href="#DejaVuSerif-64" transform="translate(722.167969 0)"/>
      <use xlink:href="#DejaVuSerif-61" transform="translate(786.181641 0)"/>
      <use xlink:href="#DejaVuSerif-74" transform="translate(845.800781 0)"/>
      <use xlink:href="#DejaVuSerif-65" transform="translate(885.986328 0)"/>
     </g>
    </g>
   </g>
  </g>
 </g>
 <defs>
  <clipPath id="pb3b9016b6d">
   <rect x="62.212969" y="53.264186" width="703.08" height="238.392"/>
  </clipPath>
 </defs>
</svg>
